<svg width="48" height="44" viewBox="0 0 48 44" fill="none" xmlns="http://www.w3.org/2000/svg">
<path d="M24.4894 3.95949C24.4309 3.95884 24.3772 3.97391 24.3283 4.00472" stroke="#F9F4C7" stroke-width="2"/>
<path d="M24.3282 4.00464C22.215 4.72634 20.5131 5.98964 19.2224 7.79454C19.2076 7.81519 19.1978 7.8378 19.1932 7.86238L17.7119 15.4864C17.709 15.5018 17.7112 15.518 17.7183 15.5326L19.4168 19.1406" stroke="#FEE985" stroke-width="2"/>
<path d="M19.4168 19.1406C19.5136 19.2583 19.6387 19.3258 19.7921 19.3432" stroke="#F9F4C7" stroke-width="2"/>
<path d="M19.7921 19.3433L19.8056 19.3475" stroke="#FEE985" stroke-width="2"/>
<path d="M19.8045 19.3472C19.894 19.4232 19.9968 19.4694 20.1128 19.4858" stroke="#F9F4C7" stroke-width="2"/>
<path d="M20.1128 19.4858L20.387 19.6176" stroke="#FEE985" stroke-width="2"/>
<path d="M20.387 19.6177C20.4352 19.6655 20.4931 19.6888 20.5605 19.6875" stroke="#F9F4C7" stroke-width="2"/>
<path d="M20.5605 19.6875L20.9963 19.8861" stroke="#FEE985" stroke-width="2"/>
<path d="M20.9963 19.886C21.0763 19.9692 21.1741 20.0143 21.2898 20.0212" stroke="#F9F4C7" stroke-width="2"/>
<path d="M21.2898 20.0212C21.4286 20.0684 21.5633 20.1242 21.6938 20.1884C22.0349 20.3565 22.2773 20.4617 22.5703 20.5989" stroke="#FEE985" stroke-width="2"/>
<path d="M22.5703 20.5989C22.6324 20.6552 22.7062 20.6874 22.7914 20.6952" stroke="#F9F4C7" stroke-width="2"/>
<path d="M22.7914 20.6953C23.2257 20.8998 23.6818 21.0989 24.1275 21.3025C24.6209 21.5279 25.117 21.7484 25.6157 21.9637C25.6395 21.9738 25.6681 21.9866 25.7015 22.002L28.3137 23.1996C28.3194 23.2023 28.3263 23.2028 28.3335 23.2011C28.3407 23.1995 28.348 23.1957 28.3543 23.1903L37.2705 15.4399C37.2843 15.4281 37.2934 15.4135 37.2963 15.3986C37.5448 14.1577 37.5614 12.9487 37.3459 11.7714C36.6702 8.08328 34.1795 5.2604 30.6244 4.01709" stroke="#FEE985" stroke-width="2"/>
<path d="M30.6244 4.01699C30.5758 3.98552 30.5221 3.97045 30.4633 3.97176" stroke="#F9F4C7" stroke-width="2"/>
<path d="M30.4633 3.97177C28.4733 3.36314 26.482 3.35905 24.4894 3.95948" stroke="#FEE985" stroke-width="2"/>
<path d="M30.4633 3.97168C30.5102 4.00937 30.5639 4.02445 30.6244 4.01691" stroke="#F7DE4D" stroke-width="2"/>
<path d="M22.7914 20.6952C22.7247 20.6477 22.651 20.6156 22.5703 20.5989" stroke="#F7DE4D" stroke-width="2"/>
<path d="M21.2898 20.0212C21.2045 19.9497 21.1067 19.9047 20.9963 19.886" stroke="#F7DE4D" stroke-width="2"/>
<path d="M20.5605 19.6875C20.5103 19.6475 20.4524 19.6242 20.387 19.6177" stroke="#F7DE4D" stroke-width="2"/>
<path d="M20.1128 19.4858C20.0196 19.4124 19.9168 19.3662 19.8045 19.3472" stroke="#F7DE4D" stroke-width="2"/>
<path d="M19.7921 19.3432L19.4168 19.1406" stroke="#F7DE4D" stroke-width="2"/>
<path d="M24.3283 4.0047C24.3884 4.01191 24.4421 3.99684 24.4894 3.95947" stroke="#F7DE4D" stroke-width="2"/>
<path d="M10.221 13.2762C12.2317 13.7505 14.2445 14.2223 16.2593 14.6916C16.2626 14.6924 16.2661 14.6926 16.2694 14.6924C16.2727 14.6921 16.2758 14.6914 16.2786 14.6901C16.2814 14.6889 16.2837 14.6872 16.2855 14.6852C16.2873 14.6832 16.2885 14.6808 16.289 14.6783L17.6122 7.86595C17.6146 7.85369 17.6136 7.84111 17.6093 7.82964C17.605 7.81817 17.5976 7.80827 17.5879 7.80106C14.9892 5.85965 11.2135 7.01742 10.1654 10.0458C9.80154 11.0969 9.8065 12.1665 10.1803 13.2546C10.1819 13.2596 10.185 13.264 10.1891 13.2673C10.1932 13.2706 10.1983 13.2727 10.2036 13.2733C10.2105 13.2743 10.2163 13.2752 10.221 13.2762Z" stroke="#F7A7CC" stroke-width="2"/>
<path d="M13.4082 15.5754C13.3824 15.5533 13.312 15.5562 13.2877 15.5503C12.0847 15.2658 10.8815 14.9841 9.67811 14.7052C9.6626 14.7014 9.64621 14.7023 9.63102 14.7077C8.45343 15.1154 7.46687 15.782 6.67134 16.7076C3.63086 20.2443 5.04525 25.5474 9.34645 27.2519C9.35391 27.2548 9.362 27.2557 9.3698 27.2544C9.37759 27.2531 9.38479 27.2497 9.39057 27.2445L17.8978 19.6175C17.9047 19.6112 17.9094 19.6029 17.9112 19.5938C17.913 19.5847 17.9117 19.5752 17.9077 19.5669L16.358 16.2853C16.3546 16.2781 16.3495 16.2718 16.3431 16.2669C16.3368 16.2619 16.3293 16.2585 16.3213 16.2568C15.414 16.0523 14.5103 15.8412 13.61 15.6236C13.5568 15.6108 13.5032 15.6016 13.4493 15.5961C13.4368 15.5945 13.4223 15.5872 13.4082 15.5754Z" stroke="#8DD4F0" stroke-width="2"/>
<path d="M31.2198 27.6881L37.8734 29.2323C37.8909 29.2365 37.9082 29.2359 37.9234 29.2308C41.3149 28.1001 43.2162 24.5265 42.2737 21.1166C41.7096 19.0759 40.197 17.4914 38.2283 16.6994C38.2166 16.6947 38.2036 16.6934 38.191 16.6957C38.1784 16.6979 38.1666 16.7036 38.1569 16.7122L29.444 24.2827C29.4366 24.2891 29.4311 24.2969 29.4284 24.305C29.4257 24.313 29.4259 24.3207 29.4291 24.3269L31.1881 27.6616C31.1918 27.6685 31.1965 27.6744 31.202 27.679C31.2075 27.6836 31.2136 27.6867 31.2198 27.6881Z" stroke="#88BDD1" stroke-width="2"/>
<path d="M10.2359 28.5576C9.03909 34.8567 13.8732 40.5679 20.3092 40.473C20.7216 40.4667 21.0407 40.4456 21.2665 40.4096C21.7251 40.3363 22.203 40.2699 22.6328 40.1544C25.0346 39.5094 26.952 38.1737 28.3851 36.1472C28.399 36.1272 28.4082 36.1053 28.4128 36.0813L29.8867 28.4755C29.889 28.4635 29.8854 28.4477 29.8768 28.4312L27.9324 24.7436C27.9269 24.733 27.9208 24.7237 27.9146 24.7165C27.9084 24.7093 27.9023 24.7042 27.8967 24.7018L19.0113 20.6853C19.0048 20.6823 18.9975 20.6814 18.9902 20.6827C18.983 20.6839 18.9762 20.6872 18.9706 20.6921C16.1468 23.2227 13.3234 25.7535 10.5006 28.2847C10.3895 28.3844 10.3084 28.4614 10.2572 28.5158C10.2462 28.5273 10.2388 28.5419 10.2359 28.5576Z" stroke="#8CDED8" stroke-width="2"/>
<path d="M30.0052 36.138C31.0697 36.899 32.2288 37.2035 33.4824 37.0514C34.8413 36.8867 36.0951 36.1159 36.8506 34.9846C37.7093 33.6999 37.895 32.2796 37.4078 30.7238C37.4028 30.7079 37.3938 30.6936 37.3815 30.6823C37.3692 30.671 37.3542 30.6631 37.3379 30.6594L31.3189 29.2617C31.3151 29.2608 31.311 29.2607 31.307 29.2616C31.303 29.2625 31.2992 29.2642 31.2958 29.2666C31.2924 29.2691 31.2894 29.2723 31.2871 29.276C31.2848 29.2797 31.2831 29.2839 31.2823 29.2882L29.972 36.0515C29.9689 36.0679 29.9704 36.0848 29.9762 36.1001C29.9821 36.1154 29.9922 36.1286 30.0052 36.138Z" stroke="#C9E49F" stroke-width="2"/>
<path d="M38.8039 30.4147C38.7938 30.4183 38.7855 30.4258 38.7809 30.4354C38.7762 30.4451 38.7756 30.4562 38.7791 30.4663C40.2163 34.5177 37.1416 38.7727 32.7839 38.5765C31.5217 38.5198 30.3748 38.0992 29.3433 37.3146C29.338 37.3105 29.3314 37.3086 29.3247 37.3093C29.318 37.3101 29.3119 37.3134 29.3076 37.3185C29.1257 37.5456 28.9403 37.7983 28.7658 38.0009C26.9153 40.146 24.5687 41.4497 21.726 41.9122C21.3175 41.979 20.437 42.0666 19.7301 42.0572C19.5976 42.0556 19.1681 42.0105 18.4416 41.922C17.3691 41.7912 16.2866 41.4709 15.1939 40.9609C10.4297 38.7368 7.81703 33.6928 8.7783 28.5441C8.77957 28.5374 8.77833 28.5305 8.77481 28.5245C8.77128 28.5185 8.76568 28.5138 8.75897 28.5111C6.29472 27.56 4.64632 25.8398 3.81378 23.3506C3.7999 23.3108 3.80535 23.2611 3.788 23.2075C3.66175 22.8172 3.57499 22.3901 3.52773 21.9264C3.14798 18.1989 5.26734 14.8234 8.77483 13.5133C8.77991 13.5112 8.78403 13.5074 8.78634 13.5026C8.78865 13.4977 8.78896 13.4922 8.78723 13.4872C8.22471 11.8468 8.30898 10.2704 9.04006 8.75782C10.7048 5.31402 15.1542 4.3062 18.225 6.59813C18.2276 6.60007 18.2306 6.60149 18.2337 6.60232C18.2369 6.60314 18.2401 6.60336 18.2433 6.60295C18.2465 6.60253 18.2495 6.60151 18.2522 6.59992C18.255 6.59833 18.2573 6.59622 18.2592 6.59371C20.3731 3.75902 23.7086 1.93069 27.2998 1.91791C27.6915 1.91643 28.101 1.90562 28.4758 1.93855C32.3675 2.27728 35.8536 4.51219 37.679 7.95451C38.9151 10.2851 39.2935 12.7747 38.8143 15.4232C38.8132 15.43 38.8145 15.437 38.8181 15.4429C38.8216 15.4488 38.8271 15.4533 38.8336 15.4556C41.5038 16.4443 43.4249 18.6792 43.9578 21.4623C44.0495 21.9416 44.1412 22.6097 44.11 23.1549C43.9261 26.3981 41.9306 29.3051 38.8039 30.4147ZM24.4894 3.9596C24.4309 3.95895 24.3772 3.97403 24.3283 4.00483C22.215 4.72653 20.5131 5.98983 19.2224 7.79473C19.2076 7.81538 19.1978 7.838 19.1932 7.86258L17.7119 15.4866C17.709 15.502 17.7112 15.5181 17.7183 15.5328L19.4168 19.1408C19.5136 19.2585 19.6387 19.326 19.7921 19.3434L19.8045 19.3473C19.894 19.4233 19.9968 19.4696 20.1128 19.486L20.387 19.6177C20.4352 19.6656 20.4931 19.6888 20.5605 19.6875L20.9963 19.8861C21.0762 19.9694 21.1741 20.0144 21.2898 20.0213C21.4286 20.0685 21.5632 20.1242 21.6938 20.1885C22.0349 20.3566 22.2773 20.4618 22.5703 20.599C22.6324 20.6554 22.7061 20.6875 22.7914 20.6953C23.2257 20.8999 23.6818 21.099 24.1275 21.3025C24.6209 21.528 25.117 21.7484 25.6157 21.9637C25.6395 21.9739 25.6681 21.9867 25.7015 22.0021L28.3137 23.1996C28.3194 23.2023 28.3263 23.2028 28.3335 23.2012C28.3407 23.1995 28.348 23.1957 28.3543 23.1903L37.2705 15.4399C37.2843 15.4281 37.2934 15.4135 37.2963 15.3986C37.5448 14.1578 37.5614 12.9487 37.3459 11.7714C36.6702 8.08331 34.1795 5.26043 30.6244 4.01713C30.5758 3.98566 30.5221 3.97058 30.4633 3.9719C28.4733 3.36327 26.482 3.35917 24.4894 3.9596ZM10.221 13.2763C12.2318 13.7505 14.2445 14.2223 16.2593 14.6917C16.2626 14.6924 16.2661 14.6927 16.2694 14.6925C16.2727 14.6922 16.2758 14.6914 16.2786 14.6902C16.2814 14.689 16.2837 14.6873 16.2855 14.6853C16.2873 14.6832 16.2885 14.6809 16.289 14.6784L17.6122 7.86602C17.6146 7.85376 17.6136 7.84118 17.6093 7.82971C17.605 7.81824 17.5976 7.80833 17.5879 7.80112C14.9892 5.85972 11.2135 7.01748 10.1654 10.0459C9.80155 11.0969 9.8065 12.1665 10.1803 13.2547C10.1819 13.2596 10.185 13.2641 10.1891 13.2674C10.1932 13.2707 10.1983 13.2728 10.2036 13.2733C10.2105 13.2743 10.2163 13.2753 10.221 13.2763ZM13.4082 15.5756C13.3824 15.5535 13.312 15.5564 13.2877 15.5505C12.0847 15.266 10.8815 14.9843 9.6781 14.7054C9.66259 14.7016 9.6462 14.7025 9.631 14.7079C8.45341 15.1156 7.46686 15.7822 6.67133 16.7078C3.63085 20.2445 5.04524 25.5476 9.34644 27.2521C9.3539 27.255 9.36199 27.2559 9.36978 27.2546C9.37758 27.2533 9.38478 27.2499 9.39056 27.2447L17.8978 19.6177C17.9047 19.6114 17.9094 19.6031 17.9112 19.594C17.913 19.5849 17.9117 19.5754 17.9077 19.5671L16.3579 16.2855C16.3546 16.2783 16.3495 16.272 16.3431 16.2671C16.3367 16.2621 16.3293 16.2587 16.3213 16.257C15.414 16.0525 14.5103 15.8414 13.61 15.6238C13.5567 15.611 13.5032 15.6018 13.4493 15.5963C13.4368 15.5947 13.4223 15.5874 13.4082 15.5756ZM31.2198 27.6881L37.8734 29.2323C37.8908 29.2365 37.9082 29.236 37.9234 29.2308C41.3149 28.1001 43.2161 24.5265 42.2737 21.1167C41.7095 19.0759 40.197 17.4914 38.2283 16.6994C38.2165 16.6947 38.2036 16.6934 38.191 16.6957C38.1784 16.698 38.1666 16.7037 38.1569 16.7122L29.444 24.2827C29.4366 24.2891 29.431 24.2969 29.4283 24.305C29.4256 24.313 29.4259 24.3208 29.4291 24.3269L31.1881 27.6616C31.1918 27.6685 31.1965 27.6745 31.202 27.679C31.2075 27.6836 31.2136 27.6867 31.2198 27.6881ZM10.2358 28.5578C9.03907 34.8569 13.8732 40.5681 20.3091 40.4732C20.7216 40.467 21.0407 40.4458 21.2664 40.4098C21.725 40.3365 22.2029 40.2702 22.6328 40.1546C25.0345 39.5096 26.952 38.1739 28.385 36.1474C28.3989 36.1275 28.4082 36.1055 28.4128 36.0816L29.8867 28.4757C29.8889 28.4638 29.8854 28.4479 29.8768 28.4315L27.9324 24.7438C27.9268 24.7332 27.9207 24.724 27.9146 24.7167C27.9084 24.7095 27.9023 24.7045 27.8967 24.702L19.0112 20.6855C19.0047 20.6826 18.9974 20.6817 18.9902 20.6829C18.983 20.6841 18.9762 20.6874 18.9706 20.6924C16.1468 23.2229 13.3234 25.7538 10.5006 28.285C10.3895 28.3846 10.3084 28.4616 10.2571 28.516C10.2461 28.5276 10.2387 28.5421 10.2358 28.5578ZM30.0052 36.1381C31.0697 36.8991 32.2288 37.2036 33.4824 37.0515C34.8413 36.8868 36.0951 36.116 36.8506 34.9848C37.7093 33.7 37.895 32.2797 37.4078 30.7239C37.4028 30.708 37.3937 30.6937 37.3815 30.6824C37.3692 30.6711 37.3542 30.6632 37.3379 30.6595L31.3189 29.2618C31.315 29.2609 31.311 29.2609 31.307 29.2617C31.303 29.2626 31.2992 29.2643 31.2958 29.2668C31.2924 29.2692 31.2894 29.2724 31.2871 29.2761C31.2847 29.2799 31.2831 29.284 31.2823 29.2884L29.972 36.0516C29.9689 36.0681 29.9704 36.0849 29.9762 36.1002C29.9821 36.1155 29.9921 36.1287 30.0052 36.1381Z" fill="white"/>
<path d="M30.4632 3.97177C30.5102 4.00946 30.5639 4.02454 30.6243 4.017C34.1794 5.26031 36.6701 8.08319 37.3458 11.7713C37.5613 12.9486 37.5448 14.1576 37.2963 15.3985C37.2934 15.4134 37.2843 15.428 37.2705 15.4398L28.3543 23.1902C28.3479 23.1956 28.3407 23.1994 28.3335 23.2011C28.3263 23.2027 28.3193 23.2022 28.3136 23.1995L25.7015 22.0019C25.6681 21.9865 25.6395 21.9738 25.6157 21.9636C25.117 21.7483 24.6209 21.5279 24.1274 21.3024C23.6818 21.0988 23.2257 20.8997 22.7914 20.6952C22.7246 20.6477 22.6509 20.6156 22.5703 20.5989C22.2773 20.4617 22.0348 20.3565 21.6938 20.1884C21.5632 20.1241 21.4285 20.0684 21.2897 20.0212C21.2044 19.9498 21.1066 19.9047 20.9962 19.886L20.5605 19.6874C20.5102 19.6474 20.4524 19.6241 20.3869 19.6176L20.1128 19.4858C20.0196 19.4124 19.9168 19.3662 19.8044 19.3472L19.792 19.3433L19.4167 19.1407L17.7183 15.5327C17.7112 15.518 17.7089 15.5018 17.7118 15.4865L19.1932 7.86245C19.1978 7.83787 19.2075 7.81526 19.2224 7.79461C20.513 5.98971 22.215 4.72641 24.3282 4.00471C24.3884 4.01192 24.4421 3.99684 24.4893 3.95948C26.482 3.35905 28.4733 3.36314 30.4632 3.97177Z" fill="#FCD20B"/>
<path d="M24.4893 3.95949C24.4421 3.99686 24.3884 4.01193 24.3282 4.00472C24.3771 3.97391 24.4308 3.95884 24.4893 3.95949Z" fill="#F2E98F"/>
<path d="M30.4632 3.97176C30.5221 3.97045 30.5758 3.98552 30.6243 4.01699C30.5639 4.02453 30.5102 4.00945 30.4632 3.97176Z" fill="#F2E98F"/>
<path d="M10.221 13.2762C10.2163 13.2752 10.2105 13.2743 10.2036 13.2733C10.1983 13.2727 10.1932 13.2706 10.1891 13.2673C10.185 13.264 10.1819 13.2596 10.1803 13.2546C9.8065 12.1665 9.80154 11.0969 10.1654 10.0458C11.2135 7.01742 14.9892 5.85965 17.5879 7.80106C17.5976 7.80827 17.605 7.81817 17.6093 7.82964C17.6136 7.84111 17.6146 7.85369 17.6122 7.86595L16.289 14.6783C16.2885 14.6808 16.2873 14.6832 16.2855 14.6852C16.2837 14.6872 16.2814 14.6889 16.2786 14.6901C16.2758 14.6914 16.2727 14.6921 16.2694 14.6924C16.2661 14.6926 16.2626 14.6924 16.2593 14.6916C14.2445 14.2223 12.2317 13.7505 10.221 13.2762Z" fill="#EF4F99"/>
<path d="M13.4493 15.5961C13.5032 15.6016 13.5568 15.6108 13.61 15.6236C14.5103 15.8412 15.414 16.0523 16.3213 16.2568C16.3293 16.2585 16.3368 16.2619 16.3431 16.2669C16.3495 16.2718 16.3546 16.2781 16.358 16.2853L17.9077 19.5669C17.9117 19.5752 17.913 19.5847 17.9112 19.5938C17.9094 19.6029 17.9047 19.6112 17.8978 19.6175L9.39057 27.2445C9.38479 27.2497 9.37759 27.2531 9.3698 27.2544C9.362 27.2557 9.35391 27.2548 9.34645 27.2519C5.04525 25.5474 3.63086 20.2443 6.67134 16.7076C7.46687 15.782 8.45343 15.1154 9.63102 14.7077C9.64621 14.7023 9.6626 14.7014 9.67811 14.7052C10.8815 14.9841 12.0847 15.2658 13.2877 15.5503C13.312 15.5562 13.3824 15.5533 13.4082 15.5754C13.4223 15.5872 13.4368 15.5945 13.4493 15.5961Z" fill="#1BA8E0"/>
<path d="M31.2198 27.6881C31.2136 27.6867 31.2075 27.6836 31.202 27.679C31.1965 27.6744 31.1918 27.6685 31.188 27.6616L29.4291 24.3269C29.4259 24.3207 29.4256 24.313 29.4283 24.305C29.431 24.2969 29.4365 24.2891 29.444 24.2827L38.1569 16.7122C38.1666 16.7036 38.1784 16.6979 38.191 16.6957C38.2036 16.6934 38.2165 16.6947 38.2283 16.6994C40.197 17.4914 41.7095 19.0759 42.2737 21.1166C43.2161 24.5265 41.3149 28.1001 37.9234 29.2308C37.9082 29.2359 37.8908 29.2365 37.8733 29.2323L31.2198 27.6881Z" fill="#117AA2"/>
<path d="M19.4167 19.1406L19.792 19.3432C19.6387 19.3258 19.5136 19.2583 19.4167 19.1406Z" fill="#F2E98F"/>
<path d="M19.8044 19.3472C19.9168 19.3662 20.0196 19.4124 20.1128 19.4858C19.9968 19.4694 19.894 19.4232 19.8044 19.3472Z" fill="#F2E98F"/>
<path d="M20.387 19.6177C20.4524 19.6242 20.5102 19.6475 20.5605 19.6875C20.4931 19.6888 20.4352 19.6655 20.387 19.6177Z" fill="#F2E98F"/>
<path d="M20.9962 19.886C21.1066 19.9047 21.2045 19.9497 21.2897 20.0212C21.1741 20.0143 21.0762 19.9692 20.9962 19.886Z" fill="#F2E98F"/>
<path d="M22.5703 20.5989C22.6509 20.6156 22.7246 20.6477 22.7914 20.6952C22.7061 20.6874 22.6324 20.6552 22.5703 20.5989Z" fill="#F2E98F"/>
<path d="M20.3091 40.4732C13.8732 40.5681 9.03903 34.857 10.2358 28.5578C10.2387 28.5421 10.2461 28.5276 10.2571 28.516C10.3083 28.4616 10.3895 28.3846 10.5005 28.285C13.3234 25.7538 16.1467 23.2229 18.9706 20.6924C18.9761 20.6874 18.983 20.6841 18.9902 20.6829C18.9974 20.6817 19.0047 20.6826 19.0112 20.6855L27.8967 24.702C27.9023 24.7045 27.9084 24.7095 27.9145 24.7167C27.9207 24.724 27.9268 24.7332 27.9324 24.7438L29.8767 28.4315C29.8854 28.4479 29.8889 28.4638 29.8867 28.4757L28.4128 36.0816C28.4081 36.1055 28.3989 36.1275 28.385 36.1475C26.9519 38.1739 25.0345 39.5096 22.6327 40.1547C22.2029 40.2702 21.725 40.3365 21.2664 40.4098C21.0407 40.4459 20.7216 40.467 20.3091 40.4732Z" fill="#19BCB1"/>
<path d="M30.0052 36.138C29.9921 36.1286 29.9821 36.1154 29.9762 36.1001C29.9703 36.0848 29.9689 36.0679 29.9719 36.0515L31.2822 29.2882C31.2831 29.2839 31.2847 29.2797 31.2871 29.276C31.2894 29.2723 31.2923 29.2691 31.2958 29.2666C31.2992 29.2642 31.303 29.2625 31.307 29.2616C31.311 29.2607 31.315 29.2608 31.3189 29.2617L37.3379 30.6594C37.3542 30.6631 37.3692 30.671 37.3815 30.6823C37.3937 30.6936 37.4028 30.7079 37.4078 30.7238C37.895 32.2796 37.7092 33.6999 36.8506 34.9846C36.095 36.1159 34.8413 36.8867 33.4824 37.0514C32.2288 37.2035 31.0697 36.899 30.0052 36.138Z" fill="#92C83E"/>
</svg>
