<svg width="74" height="44" viewBox="0 0 74 44" fill="none" xmlns="http://www.w3.org/2000/svg">
<path d="M70.2764 6.38252C70.2764 5.5073 69.9279 4.66794 69.3076 4.04907C68.6873 3.4302 67.846 3.08252 66.9687 3.08252H7.06751C6.19026 3.08252 5.34895 3.4302 4.72864 4.04907C4.10834 4.66794 3.75985 5.5073 3.75985 6.38252V37.6177C3.75985 38.4929 4.10834 39.3323 4.72864 39.9511C5.34895 40.57 6.19026 40.9177 7.06751 40.9177H66.9687C67.846 40.9177 68.6873 40.57 69.3076 39.9511C69.9279 39.3323 70.2764 38.4929 70.2764 37.6177V6.38252Z" stroke="#808080" stroke-width="2"/>
<path d="M69.3334 6.99494C69.334 6.61523 69.2597 6.23911 69.1147 5.88805C68.9697 5.53699 68.7568 5.21787 68.4881 4.94891C68.2195 4.67995 67.9004 4.46641 67.549 4.32049C67.1976 4.17457 66.8209 4.09912 66.4403 4.09846L7.65871 3.9961C7.27812 3.99543 6.90113 4.06957 6.54926 4.21426C6.19739 4.35895 5.87753 4.57138 5.60794 4.8394C5.33835 5.10743 5.12432 5.42581 4.97806 5.77636C4.8318 6.12691 4.75618 6.50277 4.75552 6.88247L4.70284 37.0055C4.70217 37.3852 4.77647 37.7613 4.9215 38.1124C5.06653 38.4634 5.27945 38.7826 5.5481 39.0515C5.81674 39.3205 6.13586 39.534 6.48722 39.68C6.83858 39.8259 7.21532 39.9013 7.5959 39.902L66.3775 40.0043C66.7581 40.005 67.1351 39.9309 67.487 39.7862C67.8388 39.6415 68.1587 39.4291 68.4283 39.161C68.6979 38.893 68.9119 38.5746 69.0582 38.2241C69.2044 37.8735 69.28 37.4977 69.2807 37.118L69.3334 6.99494Z" stroke="#808080" stroke-width="2"/>
<path d="M68.3378 7.02561C68.3378 6.49279 68.1257 5.98179 67.748 5.60503C67.3704 5.22826 66.8582 5.0166 66.3241 5.0166H7.71207C7.17801 5.0166 6.66583 5.22826 6.28819 5.60503C5.91056 5.98179 5.6984 6.49279 5.6984 7.02561V36.9746C5.6984 37.5075 5.91056 38.0184 6.28819 38.3952C6.66583 38.772 7.17801 38.9836 7.71207 38.9836H66.3241C66.8582 38.9836 67.3704 38.772 67.748 38.3952C68.1257 38.0184 68.3378 37.5075 68.3378 36.9746V7.02561Z" stroke="#808080" stroke-width="2"/>
<path d="M15.997 10.5674C17.7433 10.8269 19.2376 11.5787 20.4799 12.823" stroke="#587437" stroke-width="2"/>
<path d="M20.4799 12.823L20.853 13.3113C20.8734 13.338 20.8823 13.3725 20.8783 13.4088C20.8744 13.445 20.8577 13.4807 20.8312 13.5096C19.3749 15.11 17.2861 16.8289 14.9671 16.43" stroke="#476322" stroke-width="2"/>
<path d="M14.9671 16.43L14.9598 15.9102C14.9597 15.877 14.9482 15.8426 14.9265 15.8104C14.9048 15.7781 14.8737 15.7492 14.8362 15.7264C14.1432 15.301 13.6408 14.7127 13.329 13.9616C13.313 13.9225 13.3066 13.8815 13.3104 13.843C13.3143 13.8046 13.3283 13.7703 13.3508 13.744C13.7418 13.3089 14.224 13.0615 14.7975 13.0018C14.8189 12.9998 14.8405 13.0028 14.8609 13.0107C14.8813 13.0185 14.9001 13.031 14.916 13.0474C14.932 13.0638 14.9448 13.0836 14.9535 13.1058C14.9623 13.1279 14.967 13.1518 14.9671 13.1759V15.6539C14.9669 15.6823 14.9813 15.7109 15.0079 15.7348C15.0345 15.7586 15.0715 15.7762 15.1125 15.7845C16.8523 16.1592 18.3232 14.7739 19.324 13.541C19.3434 13.5168 19.3542 13.4869 19.3546 13.4562C19.3551 13.4255 19.3451 13.3958 19.3264 13.3717C18.2812 12.0469 16.9113 11.3426 15.2167 11.2588C15.1705 11.2568 15.1268 11.2417 15.0932 11.216C15.0596 11.1904 15.0381 11.156 15.0325 11.1185L14.9647 10.6955C14.961 10.6711 14.9406 10.6496 14.9078 10.6352C14.8749 10.6208 14.832 10.6147 14.7878 10.6181C12.8177 10.7873 10.838 11.9792 9.42284 13.2823C9.39699 13.3067 9.37904 13.3383 9.37127 13.3732C9.36351 13.408 9.36627 13.4446 9.37922 13.4781C10.334 16.0085 12.136 17.5566 14.7854 18.1223" stroke="#4F6730" stroke-width="2"/>
<path d="M14.7854 18.1223C15.0955 18.2529 14.9259 18.8524 15.0059 19.1595C15.014 19.1925 15.0337 19.2218 15.0618 19.2428C15.0899 19.2639 15.1248 19.2754 15.161 19.2755L24.0856 19.2779" stroke="#476322" stroke-width="2"/>
<path d="M24.0856 19.2779C24.1615 19.3085 24.2649 19.3004 24.3957 19.2537C24.4269 19.2423 24.4538 19.2214 24.4728 19.1937C24.4919 19.1661 24.5022 19.133 24.5023 19.099L24.4975 9.3682C24.4974 9.32436 24.4888 9.28305 24.4731 9.2504C24.4574 9.21774 24.4354 9.19547 24.4103 9.18688C24.3634 9.17237 24.3053 9.1756 24.2358 9.19655" stroke="#587437" stroke-width="2"/>
<path d="M24.2358 9.19649L15.1585 9.19165C15.1078 9.19165 15.0591 9.20388 15.0232 9.22564C14.9873 9.2474 14.9671 9.27692 14.9671 9.30769L14.9647 10.456C14.9646 10.4724 14.9688 10.4887 14.9772 10.5038C14.9856 10.5189 14.9979 10.5326 15.0135 10.5441C15.0291 10.5556 15.0475 10.5646 15.0679 10.5707C15.0882 10.5767 15.11 10.5797 15.1319 10.5793L15.997 10.5673" stroke="#476322" stroke-width="2"/>
<path d="M24.2358 9.19653L24.0856 19.2779" stroke="#9FD758" stroke-width="2"/>
<path d="M14.7854 18.1222L14.9768 18.011" stroke="#96CA51" stroke-width="2"/>
<path d="M14.9768 18.011L15.0737 18.0642C15.1561 18.1061 15.2199 18.1263 15.2651 18.1247C18.1261 18.036 20.7698 17.2503 23.1962 15.7675C23.2207 15.7521 23.2407 15.7308 23.2546 15.7055C23.2684 15.6802 23.2755 15.6518 23.2753 15.623C23.2751 15.5942 23.2675 15.5659 23.2532 15.5409C23.2389 15.5158 23.2185 15.4948 23.1938 15.4798L21.7641 14.6143C21.7315 14.594 21.6927 14.5854 21.6537 14.5897C21.6147 14.5941 21.5777 14.6112 21.5485 14.6385C19.7626 16.2776 17.6059 17.4937 15.127 17.3317C15.0969 17.3297 15.0681 17.3159 15.0456 17.2925C15.0231 17.2692 15.0082 17.2378 15.0034 17.2036L14.9065 16.4904" stroke="#476322" stroke-width="2"/>
<path d="M14.9065 16.4904L14.9671 16.4299" stroke="#96CA51" stroke-width="2"/>
<path d="M20.4799 12.823C20.6705 12.7892 20.7052 12.7134 20.584 12.5958C19.891 11.9213 16.9347 9.68016 15.997 10.5674" stroke="#9FD758" stroke-width="2"/>
<path d="M14.9065 16.4905C13.5463 16.1198 12.6061 15.243 12.0859 13.8602C12.059 13.787 12.0552 13.7072 12.0751 13.6316C12.095 13.556 12.1377 13.4881 12.1974 13.4371C12.9276 12.8085 13.7684 12.4128 14.7199 12.2501C14.7787 12.24 14.8326 12.2201 14.872 12.1941C14.9114 12.168 14.934 12.1373 14.9356 12.1074L14.9623 11.4232C14.9631 11.4079 14.9585 11.393 14.9486 11.3796C14.9388 11.3661 14.924 11.3545 14.9052 11.3455C14.8865 11.3365 14.8643 11.3304 14.8403 11.3275C14.8162 11.3247 14.7908 11.3251 14.766 11.329C13.2345 11.5578 11.9704 12.2565 10.9737 13.425C10.951 13.4515 10.9361 13.4849 10.9306 13.5218C10.925 13.5587 10.929 13.5979 10.9422 13.6353C11.6126 15.5436 12.9155 16.7814 14.8508 17.3487C14.8796 17.357 14.9052 17.3752 14.9239 17.4008C14.9426 17.4264 14.9535 17.4581 14.955 17.4914L14.9768 18.0112" stroke="#4F6730" stroke-width="2"/>
<path d="M37.3525 15.9973L36.0173 11.1912C36.0111 11.1686 35.9911 11.1486 35.9607 11.1346C35.9303 11.1205 35.8913 11.1132 35.8501 11.1138L34.1709 11.1211C34.1457 11.1209 34.1206 11.1258 34.0976 11.1353C34.0746 11.1447 34.0543 11.1585 34.0385 11.1755C34.0227 11.1925 34.0117 11.2122 34.0065 11.233C34.0013 11.2537 34.002 11.2751 34.0085 11.2951L36.0295 17.5446C36.0448 17.5918 36.067 17.6336 36.0925 17.6634C36.1179 17.6931 36.1452 17.7092 36.17 17.709H38.7143C38.7453 17.709 38.7768 17.6954 38.8043 17.6701C38.8318 17.6449 38.8537 17.6094 38.867 17.5688L40.9122 11.2564C40.9173 11.2408 40.9193 11.2241 40.9179 11.2079C40.9166 11.1916 40.9119 11.1762 40.9043 11.163C40.8967 11.1498 40.8864 11.139 40.8743 11.1317C40.8622 11.1245 40.8486 11.1208 40.8346 11.1211H39.1384C39.106 11.1209 39.0719 11.1392 39.0416 11.1729C39.0113 11.2067 38.9865 11.2539 38.9712 11.3072L37.6021 15.9973C37.5165 16.2907 37.4333 16.2907 37.3525 15.9973Z" stroke="#808080" stroke-width="2"/>
<path d="M51.0896 13.8868C50.8618 10.4393 47.1907 11.1283 44.9104 11.109C44.8921 11.1086 44.8739 11.1118 44.8568 11.1184C44.8398 11.1249 44.8243 11.1347 44.8112 11.147C44.7981 11.1594 44.7877 11.1742 44.7806 11.1905C44.7735 11.2068 44.7699 11.2243 44.7699 11.2419L44.7626 17.5446C44.7625 17.5792 44.775 17.6126 44.7975 17.6378C44.8201 17.663 44.8509 17.6781 44.8838 17.6799C48.2326 17.8395 51.3876 18.398 51.0896 13.8868Z" stroke="#808080" stroke-width="2"/>
<path d="M29.0386 12.5837C31.5902 12.5401 31.8034 12.7867 31.864 15.2502C31.8834 16.0142 31.8785 16.7822 31.8495 17.5542C31.8488 17.5743 31.852 17.5943 31.8589 17.6131C31.8658 17.6319 31.8762 17.649 31.8896 17.6634C31.9029 17.6779 31.9189 17.6893 31.9366 17.6971C31.9542 17.705 31.9732 17.709 31.9924 17.7089H33.5651C33.5955 17.7088 33.6247 17.6948 33.6465 17.67C33.6682 17.6451 33.6807 17.6114 33.6814 17.576C33.7008 15.11 34.5562 11.1428 30.776 11.121C29.5725 11.113 28.3641 11.1162 27.1509 11.1307C27.1167 11.1313 27.0841 11.1433 27.0601 11.1641C27.0361 11.1849 27.0226 11.2128 27.0225 11.2419V17.588C27.0225 17.6201 27.0352 17.6509 27.0579 17.6735C27.0807 17.6962 27.1115 17.7089 27.1436 17.7089H28.8399C28.8694 17.7089 28.8978 17.6962 28.9187 17.6735C28.9396 17.6509 28.9513 17.6201 28.9513 17.588L28.9392 12.6924C28.9392 12.664 28.9495 12.6367 28.9681 12.6164C28.9867 12.596 29.012 12.5843 29.0386 12.5837Z" stroke="#808080" stroke-width="2"/>
<path d="M43.6237 11.1864C43.6237 11.1691 43.6168 11.1525 43.6046 11.1402C43.5923 11.128 43.5756 11.1211 43.5583 11.1211H41.8088C41.7914 11.1211 41.7748 11.128 41.7625 11.1402C41.7502 11.1525 41.7433 11.1691 41.7433 11.1864V17.6461C41.7433 17.6635 41.7502 17.6801 41.7625 17.6923C41.7748 17.7045 41.7914 17.7114 41.8088 17.7114H43.5583C43.5756 17.7114 43.5923 17.7045 43.6046 17.6923C43.6168 17.6801 43.6237 17.6635 43.6237 17.6461V11.1864Z" stroke="#808080" stroke-width="2"/>
<path d="M53.9255 11.1902C53.9255 11.1814 53.9238 11.1725 53.9204 11.1643C53.917 11.1561 53.912 11.1486 53.9057 11.1423C53.8994 11.136 53.8919 11.131 53.8837 11.1276C53.8755 11.1242 53.8667 11.1224 53.8578 11.1224L52.1131 11.1194C52.1042 11.1194 52.0953 11.1211 52.0871 11.1245C52.0789 11.1279 52.0714 11.1329 52.0651 11.1391C52.0587 11.1454 52.0537 11.1529 52.0503 11.1611C52.0469 11.1693 52.0451 11.1781 52.0451 11.187L52.0338 17.6371C52.0338 17.646 52.0355 17.6548 52.0389 17.663C52.0423 17.6712 52.0473 17.6787 52.0536 17.685C52.0599 17.6913 52.0674 17.6963 52.0756 17.6997C52.0838 17.7031 52.0926 17.7049 52.1015 17.7049L53.8462 17.7079C53.8551 17.7079 53.864 17.7062 53.8722 17.7028C53.8804 17.6994 53.8879 17.6945 53.8942 17.6882C53.9006 17.6819 53.9056 17.6745 53.909 17.6663C53.9124 17.658 53.9142 17.6492 53.9142 17.6404L53.9255 11.1902Z" stroke="#808080" stroke-width="2"/>
<path d="M60.0166 16.7009L60.3268 17.6026C60.3374 17.6335 60.3622 17.6604 60.3974 17.6795C60.4327 17.6986 60.4767 17.709 60.523 17.709L62.2798 17.7114C62.2925 17.7113 62.3046 17.7074 62.3151 17.6999C62.3255 17.6925 62.3341 17.6818 62.3401 17.6687C62.346 17.6556 62.3492 17.6406 62.3492 17.6249C62.3493 17.6092 62.3463 17.5932 62.3404 17.5785L59.8349 11.2589C59.8184 11.2184 59.7942 11.1835 59.7657 11.1589C59.7371 11.1343 59.7055 11.1211 59.6749 11.1211H57.3729C57.3309 11.1212 57.2887 11.1367 57.2519 11.1657C57.2151 11.1946 57.1855 11.2355 57.1669 11.2831L54.6904 17.5712C54.6844 17.5865 54.6817 17.6031 54.6826 17.6194C54.6835 17.6357 54.688 17.6513 54.6956 17.6649C54.7033 17.6785 54.7139 17.6896 54.7265 17.6973C54.7391 17.705 54.7533 17.709 54.768 17.709H56.4036C56.4456 17.7089 56.4859 17.6971 56.5186 17.6753C56.5514 17.6535 56.5747 17.623 56.5854 17.5881L56.8107 16.8483C56.8359 16.764 56.8807 16.6897 56.9384 16.637C56.9962 16.5842 57.0636 16.5557 57.1306 16.5558L59.8712 16.5389C59.8968 16.5386 59.9249 16.5543 59.9512 16.5835C59.9774 16.6128 60.0004 16.654 60.0166 16.7009Z" stroke="#808080" stroke-width="2"/>
<path d="M64.4028 17.2955C64.4101 17.1938 64.3955 17.0916 64.3599 16.9947C64.3243 16.8977 64.2682 16.8079 64.1951 16.7305C64.1219 16.653 64.033 16.5893 63.9335 16.5431C63.8339 16.4969 63.7257 16.469 63.6149 16.4611C63.5041 16.4532 63.393 16.4653 63.2879 16.4969C63.1827 16.5285 63.0856 16.5789 63.0021 16.6451C62.9187 16.7114 62.8504 16.7923 62.8012 16.8832C62.7521 16.9741 62.7231 17.0732 62.7158 17.1748C62.7084 17.2765 62.723 17.3787 62.7587 17.4756C62.7943 17.5726 62.8503 17.6624 62.9235 17.7398C62.9967 17.8173 63.0856 17.881 63.1851 17.9272C63.2847 17.9734 63.3929 18.0013 63.5037 18.0092C63.6145 18.0171 63.7256 18.005 63.8307 17.9734C63.9359 17.9418 64.0329 17.8914 64.1164 17.8251C64.1999 17.7589 64.2682 17.678 64.3173 17.5871C64.3665 17.4962 64.3955 17.3971 64.4028 17.2955Z" stroke="#808080" stroke-width="2"/>
<path d="M24.9652 31.8107C24.3109 33.8076 21.6818 33.5247 21.5097 31.3682C21.4152 30.1474 21.1777 27.4276 22.0961 26.5887C23.0387 25.728 24.6356 26.2575 24.97 27.5364C24.9812 27.5778 25.0043 27.6145 25.0358 27.6407C25.0674 27.667 25.1056 27.6813 25.1445 27.6814H26.9619C26.9775 27.6816 26.9929 27.678 27.007 27.671C27.0211 27.664 27.0336 27.6536 27.0435 27.6407C27.0534 27.6278 27.0606 27.6126 27.0645 27.5963C27.0684 27.5799 27.0689 27.5628 27.0661 27.546C26.47 24.0575 21.6212 23.1001 19.9395 26.1197C19.2004 27.4469 19.3167 29.9443 19.4718 31.5423C19.6705 33.619 21.0251 34.8882 23.1405 34.9583C25.1211 35.026 26.4425 33.9913 27.1048 31.8542C27.1117 31.8331 27.1132 31.8108 27.1093 31.7889C27.1053 31.767 27.096 31.7463 27.082 31.7284C27.0681 31.7105 27.0499 31.6959 27.029 31.6858C27.0082 31.6757 26.9852 31.6705 26.9619 31.6704H25.1445C25.1056 31.6706 25.0673 31.6843 25.0351 31.7094C25.0029 31.7346 24.9784 31.77 24.9652 31.8107Z" stroke="#808080" stroke-width="2"/>
<path d="M34.1539 32.1226C33.3833 33.8971 30.7493 33.254 30.7251 31.2426C30.717 30.5576 30.7138 28.327 30.7154 24.5507C30.7154 24.5154 30.7029 24.4816 30.6806 24.4567C30.6584 24.4317 30.6282 24.4177 30.5967 24.4177H28.7793C28.7673 24.4175 28.7554 24.4209 28.7444 24.4277C28.7333 24.4344 28.7233 24.4444 28.715 24.457C28.7066 24.4697 28.7001 24.4847 28.6957 24.5012C28.6913 24.5177 28.6893 24.5353 28.6896 24.5531C28.7268 26.824 28.7397 29.0958 28.7284 31.3683C28.7066 36.1648 36.3566 36.2881 36.3978 31.1241C36.4139 28.9354 36.4172 26.7443 36.4075 24.5507C36.4075 24.5154 36.3952 24.4816 36.3734 24.4567C36.3516 24.4317 36.322 24.4177 36.2912 24.4177L34.4738 24.4201C34.4548 24.4202 34.436 24.4236 34.4185 24.4304C34.401 24.4371 34.3851 24.4469 34.3718 24.4593C34.3585 24.4717 34.348 24.4864 34.341 24.5025C34.3339 24.5186 34.3305 24.5358 34.3308 24.5531C34.3566 26.5968 34.3631 28.638 34.3502 30.6769C34.347 31.3457 34.2815 31.8276 34.1539 32.1226Z" stroke="#808080" stroke-width="2"/>
<path d="M46.2141 31.1241C46.2577 28.0828 46.723 24.5555 42.4049 24.4395C41.203 24.4072 39.9954 24.404 38.7822 24.4298C38.748 24.4304 38.7154 24.4422 38.6914 24.4625C38.6674 24.4828 38.6539 24.5101 38.6538 24.5386V34.7529C38.6539 34.7819 38.6674 34.8099 38.6914 34.8307C38.7154 34.8514 38.748 34.8634 38.7822 34.8641C41.8887 34.8979 46.1487 35.6304 46.2141 31.1241Z" stroke="#808080" stroke-width="2"/>
<path d="M53.5491 33.1839L54.0652 34.7336C54.0786 34.7746 54.101 34.8104 54.1292 34.836C54.1575 34.8617 54.1903 34.8757 54.2228 34.8762L56.1613 34.8932C56.1761 34.8938 56.1903 34.8893 56.2024 34.8801C56.2146 34.8709 56.2244 34.8573 56.2311 34.8404C56.2378 34.8235 56.2411 34.8038 56.2408 34.7831C56.2404 34.7624 56.2364 34.7413 56.2292 34.7215L52.5459 24.6426C52.5248 24.5864 52.5008 24.5352 52.4782 24.4981C52.4556 24.461 52.4358 24.4402 52.4223 24.4395L50.9514 24.4226C50.9192 24.4221 50.8845 24.4392 50.8525 24.4715C50.8206 24.5038 50.7933 24.5494 50.7746 24.6015L47.0768 34.7433C47.0714 34.758 47.0686 34.7737 47.0688 34.7891C47.069 34.8045 47.072 34.8192 47.0777 34.8319C47.0834 34.8447 47.0915 34.8551 47.1015 34.8624C47.1114 34.8697 47.1229 34.8736 47.1349 34.8738H49.0735C49.1101 34.8739 49.1481 34.8566 49.1821 34.8244C49.2161 34.7923 49.2442 34.7469 49.2625 34.6949L49.7786 33.1646C49.7884 33.1344 49.8075 33.1081 49.8331 33.0894C49.8588 33.0707 49.8898 33.0607 49.9216 33.0606H53.4352C53.4563 33.0609 53.4788 33.073 53.4994 33.0953C53.5199 33.1175 53.5374 33.1487 53.5491 33.1839Z" stroke="#808080" stroke-width="2"/>
<path d="M58.6644 34.1726C58.6644 33.9161 58.5623 33.6702 58.3805 33.4888C58.1988 33.3074 57.9522 33.2056 57.6952 33.2056C57.4381 33.2056 57.1916 33.3074 57.0098 33.4888C56.828 33.6702 56.7259 33.9161 56.7259 34.1726C56.7259 34.4291 56.828 34.675 57.0098 34.8564C57.1916 35.0377 57.4381 35.1396 57.6952 35.1396C57.9522 35.1396 58.1988 35.0377 58.3805 34.8564C58.5623 34.675 58.6644 34.4291 58.6644 34.1726Z" stroke="#808080" stroke-width="2"/>
<path d="M17.8458 13.2726C17.1076 12.5296 16.2094 12.1718 15.1513 12.1992C15.1251 12.1998 15.0991 12.2038 15.075 12.211C15.0508 12.2182 15.0292 12.2284 15.0113 12.2409C14.9935 12.2534 14.9799 12.2681 14.9715 12.2838C14.963 12.2995 14.9599 12.316 14.9623 12.3322L15.0349 12.8713C15.0377 12.8937 15.0582 12.9196 15.0935 12.9453C15.1288 12.9709 15.177 12.9949 15.2312 13.0139C15.9113 13.2525 16.3839 13.7142 16.6488 14.3992C16.6546 14.4146 16.6644 14.4279 16.6776 14.4381C16.6908 14.4482 16.7068 14.4549 16.7244 14.4575C16.742 14.4601 16.7607 14.4586 16.7787 14.4531C16.7968 14.4476 16.8137 14.4382 16.8281 14.4258L17.8604 13.5265C17.8769 13.5124 17.8897 13.4945 17.8979 13.4739C17.9062 13.4532 17.9097 13.4303 17.9084 13.4064C17.907 13.3826 17.9007 13.3584 17.89 13.3354C17.8792 13.3124 17.8642 13.291 17.8458 13.2726Z" stroke="#4F6730" stroke-width="2"/>
<path d="M49.1486 15.202C49.7011 13.2751 48.5186 12.371 46.7181 12.5765C46.6828 12.5806 46.6503 12.5947 46.6266 12.6161C46.603 12.6375 46.5898 12.6647 46.5897 12.6925V16.1376C46.5895 16.1646 46.6019 16.1908 46.6243 16.211C46.6468 16.2312 46.6778 16.2438 46.7109 16.2464C47.2617 16.2995 47.8005 16.2584 48.3271 16.1231C48.7278 16.0215 49.0016 15.7145 49.1486 15.202Z" stroke="#808080" stroke-width="2"/>
<path d="M57.3705 15.2284C57.3626 15.2489 57.3597 15.271 57.3622 15.2928C57.3646 15.3146 57.3722 15.3355 57.3844 15.3536C57.3965 15.3716 57.4129 15.3864 57.432 15.3966C57.4511 15.4068 57.4724 15.4121 57.4941 15.4121H59.4302C59.4464 15.4119 59.4617 15.4063 59.4747 15.3956C59.4878 15.3849 59.4983 15.3695 59.5054 15.3507C59.5125 15.3319 59.5159 15.3101 59.5155 15.2871C59.5151 15.2642 59.5107 15.2408 59.5029 15.2187L58.5312 12.569C58.4827 12.4352 58.4351 12.4312 58.3882 12.5569L57.3705 15.2284Z" stroke="#808080" stroke-width="2"/>
<path d="M63.128 17.0344C63.0278 17.0715 62.9802 17.1392 62.985 17.2375C62.9873 17.277 63.0002 17.3151 63.0224 17.3478C63.0446 17.3806 63.0752 17.4068 63.111 17.4237C63.2645 17.4946 63.3735 17.6058 63.4381 17.7573C63.4437 17.77 63.4534 17.7801 63.4664 17.7868C63.4795 17.7935 63.4955 17.7966 63.5133 17.7959C63.5311 17.7952 63.5502 17.7907 63.5691 17.7827C63.588 17.7748 63.6062 17.7636 63.6223 17.75L63.9737 17.4551C64.013 17.4217 64.0465 17.3879 64.0705 17.3575C64.0945 17.3272 64.1079 17.3015 64.1094 17.2834C64.119 17.1738 64.0746 17.0908 63.9761 17.0344" stroke="#808080" stroke-width="2"/>
<path d="M63.9761 17.0344C63.737 16.6734 63.4543 16.6734 63.128 17.0344" stroke="#ACABAC" stroke-width="2"/>
<path d="M63.9761 17.0344L63.9155 17.0538" stroke="#2C2C2C" stroke-width="2"/>
<path d="M63.9155 17.0538C63.6942 17.0199 63.4721 17.0401 63.2491 17.1142" stroke="#ACABAC" stroke-width="2"/>
<path d="M63.2491 17.1142L63.128 17.0344" stroke="#2C2C2C" stroke-width="2"/>
<path d="M63.9155 17.0537C63.7152 17.5904 63.4931 17.6106 63.2491 17.1142" stroke="#808080" stroke-width="2"/>
<path d="M43.4129 26.5934C42.5809 26.2791 41.7223 26.1897 40.8371 26.3251C40.8027 26.3303 40.7713 26.348 40.7486 26.3751C40.726 26.4021 40.7135 26.4367 40.7135 26.4725V32.9396C40.7132 32.9678 40.7261 32.9953 40.7495 33.0164C40.7729 33.0375 40.8051 33.0507 40.8395 33.0532C42.48 33.1789 43.9436 33.0895 44.1084 31.2497C44.2214 29.9941 44.2045 28.758 44.0575 27.5411C43.9977 27.0511 43.7828 26.7352 43.4129 26.5934Z" stroke="#808080" stroke-width="2"/>
<path d="M51.6372 27.7466L50.4644 31.124C50.457 31.1448 50.4545 31.167 50.4572 31.1888C50.4598 31.2107 50.4675 31.2315 50.4797 31.2495C50.4918 31.2675 50.5079 31.2822 50.5268 31.2923C50.5456 31.3024 50.5666 31.3077 50.588 31.3077H52.8294C52.8443 31.308 52.8584 31.303 52.8703 31.2931C52.8823 31.2832 52.8919 31.2687 52.8983 31.2507C52.9047 31.2327 52.9077 31.2119 52.9071 31.1898C52.9065 31.1678 52.9023 31.1452 52.8948 31.124L51.7632 27.7853C51.718 27.6483 51.676 27.6354 51.6372 27.7466Z" stroke="#808080" stroke-width="2"/>
<path d="M58.0029 33.9793C57.9464 34.3419 58.015 34.516 58.2089 34.5015C58.2497 34.4984 58.2877 34.4794 58.3152 34.4484C58.3427 34.4174 58.3575 34.3767 58.3567 34.3346C58.3438 33.6432 58.0175 33.3708 57.3777 33.5175C57.3355 33.5273 57.2941 33.5496 57.2567 33.5827C57.2194 33.6157 57.187 33.6588 57.1621 33.7085C56.8842 34.2597 57.0377 34.6264 57.6225 34.8085C57.6749 34.8253 57.7252 34.8351 57.7676 34.8368C57.8101 34.8385 57.8429 34.8321 57.8624 34.8182C58.032 34.6989 58.0296 34.5966 57.8551 34.5111C57.8262 34.4966 57.7944 34.4885 57.7618 34.4873C57.7292 34.486 57.6966 34.4917 57.6661 34.5039C57.2396 34.6828 57.1524 33.2298 57.9302 33.7883C57.958 33.8087 57.9795 33.8373 57.9923 33.871C58.0052 33.9047 58.0088 33.9421 58.0029 33.9793Z" stroke="#808080" stroke-width="2"/>
<path d="M70.2764 37.6177C70.2764 38.4929 69.9279 39.3323 69.3076 39.9511C68.6873 40.57 67.846 40.9177 66.9687 40.9177H7.06751C6.19026 40.9177 5.34895 40.57 4.72864 39.9511C4.10834 39.3323 3.75985 38.4929 3.75985 37.6177V6.38252C3.75985 5.5073 4.10834 4.66794 4.72864 4.04907C5.34895 3.4302 6.19026 3.08252 7.06751 3.08252H66.9687C67.846 3.08252 68.6873 3.4302 69.3076 4.04907C69.9279 4.66794 70.2764 5.5073 70.2764 6.38252V37.6177ZM69.3334 6.99482C69.334 6.61511 69.2598 6.23899 69.1147 5.88793C68.9697 5.53687 68.7568 5.21775 68.4881 4.94879C68.2195 4.67983 67.9004 4.46629 67.549 4.32037C67.1976 4.17445 66.8209 4.099 66.4403 4.09834L7.65871 3.99598C7.27813 3.99531 6.90113 4.06945 6.54926 4.21414C6.19739 4.35884 5.87753 4.57126 5.60794 4.83928C5.33835 5.10731 5.12432 5.42569 4.97806 5.77624C4.8318 6.12679 4.75618 6.50265 4.75552 6.88235L4.70284 37.0054C4.70217 37.3851 4.77647 37.7612 4.9215 38.1123C5.06654 38.4633 5.27945 38.7824 5.5481 39.0514C5.81674 39.3204 6.13586 39.5339 6.48722 39.6798C6.83859 39.8258 7.21532 39.9012 7.59591 39.9019L66.3775 40.0042C66.7581 40.0049 67.1351 39.9308 67.487 39.7861C67.8388 39.6414 68.1587 39.4289 68.4283 39.1609C68.6979 38.8929 68.9119 38.5745 69.0582 38.224C69.2044 37.8734 69.28 37.4976 69.2807 37.1178L69.3334 6.99482Z" fill="black"/>
<path d="M69.2807 37.1177C69.28 37.4974 69.2044 37.8733 69.0582 38.2238C68.9119 38.5744 68.6979 38.8928 68.4283 39.1608C68.1587 39.4288 67.8388 39.6412 67.487 39.7859C67.1351 39.9306 66.7581 40.0048 66.3775 40.0041L7.5959 39.9017C7.21532 39.9011 6.83858 39.8256 6.48722 39.6797C6.13586 39.5338 5.81674 39.3203 5.5481 39.0513C5.27945 38.7823 5.06653 38.4632 4.9215 38.1121C4.77647 37.7611 4.70217 37.385 4.70284 37.0053L4.75552 6.88223C4.75618 6.50252 4.8318 6.12666 4.97806 5.77611C5.12432 5.42556 5.33835 5.10718 5.60794 4.83916C5.87753 4.57113 6.19739 4.35871 6.54926 4.21402C6.90113 4.06932 7.27812 3.99519 7.65871 3.99585L66.4403 4.09821C66.8209 4.09888 67.1976 4.17432 67.549 4.32024C67.9004 4.46616 68.2195 4.6797 68.4881 4.94867C68.7568 5.21763 68.9697 5.53675 69.1147 5.88781C69.2597 6.23887 69.334 6.61499 69.3334 6.9947L69.2807 37.1177ZM68.3378 7.02547C68.3378 6.49265 68.1257 5.98165 67.748 5.60489C67.3704 5.22812 66.8582 5.01646 66.3241 5.01646H7.71207C7.17801 5.01646 6.66583 5.22812 6.28819 5.60489C5.91056 5.98165 5.6984 6.49265 5.6984 7.02547V36.9745C5.6984 37.5073 5.91056 38.0183 6.28819 38.3951C6.66583 38.7718 7.17801 38.9835 7.71207 38.9835H66.3241C66.8582 38.9835 67.3704 38.7718 67.748 38.3951C68.1257 38.0183 68.3378 37.5073 68.3378 36.9745V7.02547Z" fill="white"/>
<path d="M68.3378 36.9746C68.3378 37.5075 68.1257 38.0185 67.748 38.3952C67.3704 38.772 66.8582 38.9836 66.3242 38.9836H7.71207C7.17802 38.9836 6.66583 38.772 6.28819 38.3952C5.91056 38.0185 5.6984 37.5075 5.6984 36.9746V7.02561C5.6984 6.49279 5.91056 5.98179 6.28819 5.60503C6.66583 5.22826 7.17802 5.0166 7.71207 5.0166H66.3242C66.8582 5.0166 67.3704 5.22826 67.748 5.60503C68.1257 5.98179 68.3378 6.49279 68.3378 7.02561V36.9746ZM15.997 10.5674C17.7433 10.8269 19.2376 11.5787 20.4799 12.823L20.853 13.3113C20.8734 13.338 20.8823 13.3725 20.8783 13.4088C20.8744 13.445 20.8577 13.4807 20.8312 13.5096C19.3749 15.11 17.2861 16.8289 14.9671 16.43L14.9598 15.9102C14.9597 15.8771 14.9482 15.8426 14.9265 15.8104C14.9048 15.7782 14.8737 15.7492 14.8362 15.7265C14.1432 15.301 13.6408 14.7127 13.329 13.9617C13.313 13.9226 13.3066 13.8815 13.3104 13.8431C13.3143 13.8047 13.3283 13.7704 13.3508 13.7441C13.7418 13.3089 14.224 13.0615 14.7975 13.0019C14.8189 12.9999 14.8405 13.0029 14.8609 13.0107C14.8813 13.0186 14.9001 13.0311 14.916 13.0474C14.932 13.0638 14.9448 13.0837 14.9536 13.1058C14.9623 13.1279 14.967 13.1518 14.9671 13.1759V15.654C14.9669 15.6824 14.9813 15.711 15.0079 15.7348C15.0345 15.7587 15.0715 15.7763 15.1125 15.7845C16.8523 16.1592 18.3232 14.774 19.324 13.541C19.3434 13.5168 19.3542 13.487 19.3546 13.4563C19.3551 13.4256 19.3451 13.3958 19.3264 13.3718C18.2812 12.0469 16.9113 11.3426 15.2167 11.2588C15.1705 11.2568 15.1268 11.2417 15.0932 11.2161C15.0596 11.1905 15.0381 11.156 15.0325 11.1186L14.9647 10.6955C14.961 10.6712 14.9406 10.6496 14.9078 10.6352C14.8749 10.6209 14.832 10.6148 14.7878 10.6181C12.8177 10.7874 10.838 11.9792 9.42284 13.2823C9.39699 13.3067 9.37904 13.3383 9.37128 13.3732C9.36351 13.4081 9.36628 13.4446 9.37923 13.4781C10.334 16.0085 12.136 17.5566 14.7854 18.1223C15.0955 18.2529 14.9259 18.8524 15.0059 19.1595C15.014 19.1925 15.0337 19.2218 15.0618 19.2428C15.0899 19.2639 15.1248 19.2754 15.161 19.2755L24.0856 19.2779C24.1615 19.3085 24.2649 19.3005 24.3957 19.2537C24.4269 19.2424 24.4538 19.2214 24.4728 19.1938C24.4919 19.1661 24.5022 19.133 24.5023 19.099L24.4975 9.36825C24.4974 9.32441 24.4888 9.28311 24.4731 9.25045C24.4574 9.21779 24.4354 9.19552 24.4103 9.18693C24.3634 9.17243 24.3053 9.17565 24.2358 9.1966L15.1585 9.19177C15.1078 9.19177 15.0591 9.20399 15.0232 9.22576C14.9873 9.24752 14.9671 9.27703 14.9671 9.30781L14.9647 10.4562C14.9646 10.4726 14.9688 10.4888 14.9772 10.5039C14.9856 10.519 14.9979 10.5327 15.0135 10.5442C15.0291 10.5557 15.0475 10.5647 15.0679 10.5708C15.0882 10.5768 15.11 10.5798 15.1319 10.5795L15.997 10.5674ZM37.3525 15.9973L36.0173 11.1911C36.0111 11.1685 35.9911 11.1486 35.9607 11.1345C35.9303 11.1205 35.8913 11.1131 35.8501 11.1137L34.1709 11.121C34.1457 11.1209 34.1206 11.1257 34.0976 11.1352C34.0746 11.1447 34.0543 11.1584 34.0385 11.1754C34.0226 11.1924 34.0117 11.2121 34.0065 11.2329C34.0013 11.2537 34.002 11.275 34.0085 11.2951L36.0295 17.5445C36.0448 17.5917 36.067 17.6335 36.0925 17.6633C36.1179 17.6931 36.1452 17.7091 36.17 17.7089H38.7143C38.7453 17.7089 38.7768 17.6953 38.8043 17.6701C38.8318 17.6448 38.8537 17.6093 38.867 17.5687L40.9122 11.2564C40.9173 11.2407 40.9193 11.2241 40.9179 11.2078C40.9166 11.1916 40.9119 11.1762 40.9043 11.1629C40.8967 11.1497 40.8864 11.139 40.8743 11.1317C40.8622 11.1244 40.8486 11.1207 40.8346 11.121H39.1384C39.106 11.1208 39.0719 11.1391 39.0416 11.1728C39.0113 11.2066 38.9865 11.2539 38.9712 11.3072L37.6021 15.9973C37.5165 16.2906 37.4333 16.2906 37.3525 15.9973ZM51.0896 13.8867C50.8618 10.4392 47.1907 11.1283 44.9104 11.1089C44.8921 11.1086 44.8739 11.1118 44.8568 11.1183C44.8398 11.1249 44.8243 11.1346 44.8112 11.147C44.7981 11.1594 44.7877 11.1741 44.7806 11.1904C44.7735 11.2067 44.7699 11.2242 44.7699 11.2419L44.7626 17.5445C44.7625 17.5792 44.775 17.6126 44.7975 17.6378C44.82 17.663 44.8509 17.678 44.8838 17.6799C48.2326 17.8395 51.3876 18.3979 51.0896 13.8867ZM29.0386 12.5836C31.5902 12.5401 31.8034 12.7867 31.864 15.2502C31.8834 16.0142 31.8785 16.7822 31.8495 17.5542C31.8488 17.5743 31.852 17.5943 31.8589 17.6131C31.8658 17.6319 31.8762 17.649 31.8896 17.6634C31.9029 17.6778 31.9189 17.6893 31.9366 17.6971C31.9542 17.7049 31.9732 17.709 31.9924 17.7089H33.5651C33.5955 17.7088 33.6247 17.6948 33.6465 17.67C33.6682 17.6451 33.6807 17.6114 33.6814 17.5759C33.7008 15.11 34.5562 11.1428 30.776 11.121C29.5725 11.1129 28.3641 11.1162 27.1509 11.1307C27.1167 11.1313 27.0841 11.1433 27.0601 11.1641C27.0361 11.1849 27.0226 11.2128 27.0225 11.2419V17.588C27.0225 17.6201 27.0352 17.6508 27.0579 17.6735C27.0807 17.6962 27.1115 17.7089 27.1436 17.7089H28.8399C28.8694 17.7089 28.8978 17.6962 28.9187 17.6735C28.9396 17.6508 28.9513 17.6201 28.9513 17.588L28.9392 12.6924C28.9392 12.664 28.9495 12.6367 28.9681 12.6163C28.9867 12.596 29.012 12.5843 29.0386 12.5836ZM43.6237 11.1863C43.6237 11.169 43.6168 11.1524 43.6046 11.1401C43.5923 11.1279 43.5757 11.121 43.5583 11.121H41.8088C41.7914 11.121 41.7748 11.1279 41.7625 11.1401C41.7502 11.1524 41.7433 11.169 41.7433 11.1863V17.6461C41.7433 17.6634 41.7502 17.68 41.7625 17.6922C41.7748 17.7045 41.7914 17.7113 41.8088 17.7113H43.5583C43.5757 17.7113 43.5923 17.7045 43.6046 17.6922C43.6168 17.68 43.6237 17.6634 43.6237 17.6461V11.1863ZM53.9255 11.1903C53.9255 11.1814 53.9238 11.1726 53.9204 11.1644C53.917 11.1562 53.912 11.1487 53.9057 11.1424C53.8994 11.1361 53.8919 11.1311 53.8837 11.1277C53.8755 11.1243 53.8667 11.1225 53.8578 11.1225L52.1131 11.1195C52.1042 11.1195 52.0953 11.1212 52.0871 11.1246C52.0789 11.128 52.0714 11.1329 52.0651 11.1392C52.0587 11.1455 52.0537 11.1529 52.0503 11.1612C52.0469 11.1694 52.0451 11.1782 52.0451 11.187L52.0338 17.6372C52.0338 17.646 52.0355 17.6549 52.0389 17.6631C52.0423 17.6713 52.0473 17.6788 52.0536 17.6851C52.0599 17.6914 52.0674 17.6964 52.0756 17.6998C52.0838 17.7032 52.0926 17.705 52.1015 17.705L53.8462 17.708C53.8551 17.708 53.864 17.7063 53.8722 17.7029C53.8804 17.6995 53.8879 17.6945 53.8942 17.6883C53.9006 17.682 53.9056 17.6745 53.909 17.6663C53.9124 17.6581 53.9142 17.6493 53.9142 17.6404L53.9255 11.1903ZM60.0166 16.7008L60.3268 17.6025C60.3374 17.6334 60.3622 17.6603 60.3974 17.6794C60.4327 17.6985 60.4767 17.7089 60.523 17.7089L62.2798 17.7113C62.2925 17.7112 62.3046 17.7073 62.3151 17.6998C62.3256 17.6924 62.3341 17.6817 62.3401 17.6686C62.346 17.6555 62.3492 17.6405 62.3492 17.6248C62.3493 17.6091 62.3463 17.5932 62.3404 17.5784L59.8349 11.2588C59.8184 11.2183 59.7942 11.1834 59.7657 11.1588C59.7371 11.1342 59.7055 11.121 59.6749 11.121H57.3729C57.3309 11.1211 57.2887 11.1366 57.2519 11.1656C57.2151 11.1945 57.1855 11.2354 57.1669 11.283L54.6904 17.5711C54.6844 17.5864 54.6817 17.603 54.6826 17.6193C54.6835 17.6356 54.688 17.6512 54.6957 17.6648C54.7033 17.6784 54.7139 17.6895 54.7265 17.6972C54.7391 17.7049 54.7533 17.7089 54.768 17.7089H56.4036C56.4456 17.7088 56.4859 17.697 56.5186 17.6752C56.5514 17.6534 56.5748 17.6229 56.5854 17.588L56.8107 16.8483C56.8359 16.7639 56.8807 16.6897 56.9384 16.6369C56.9962 16.5841 57.0636 16.5556 57.1306 16.5557L59.8712 16.5388C59.8968 16.5385 59.9249 16.5542 59.9512 16.5834C59.9774 16.6127 60.0004 16.6539 60.0166 16.7008ZM64.4028 17.2954C64.4101 17.1937 64.3955 17.0915 64.3599 16.9946C64.3243 16.8976 64.2682 16.8079 64.1951 16.7304C64.1219 16.6529 64.033 16.5892 63.9335 16.543C63.8339 16.4968 63.7257 16.4689 63.6149 16.461C63.5041 16.4531 63.393 16.4653 63.2879 16.4968C63.1827 16.5284 63.0856 16.5788 63.0021 16.6451C62.9187 16.7113 62.8504 16.7922 62.8012 16.8831C62.7521 16.974 62.7231 17.0731 62.7158 17.1747C62.7085 17.2764 62.723 17.3786 62.7587 17.4756C62.7943 17.5725 62.8503 17.6623 62.9235 17.7398C62.9967 17.8172 63.0856 17.8809 63.1851 17.9271C63.2847 17.9733 63.3929 18.0012 63.5037 18.0091C63.6145 18.017 63.7256 18.0049 63.8307 17.9733C63.9359 17.9417 64.033 17.8913 64.1164 17.8251C64.1999 17.7588 64.2682 17.6779 64.3173 17.587C64.3665 17.4961 64.3955 17.397 64.4028 17.2954ZM24.9652 31.8107C24.3109 33.8076 21.6818 33.5247 21.5097 31.3683C21.4152 30.1474 21.1777 27.4276 22.0961 26.5887C23.0387 25.728 24.6356 26.2575 24.97 27.5364C24.9812 27.5779 25.0043 27.6145 25.0358 27.6408C25.0674 27.667 25.1056 27.6813 25.1445 27.6814H26.9619C26.9775 27.6816 26.9929 27.678 27.007 27.671C27.0211 27.664 27.0336 27.6536 27.0435 27.6407C27.0534 27.6278 27.0606 27.6126 27.0645 27.5963C27.0684 27.5799 27.0689 27.5628 27.0661 27.5461C26.47 24.0575 21.6212 23.1001 19.9395 26.1197C19.2004 27.4469 19.3167 29.9443 19.4718 31.5423C19.6705 33.619 21.0251 34.8883 23.1405 34.9584C25.1211 35.0261 26.4425 33.9913 27.1048 31.8542C27.1117 31.8331 27.1132 31.8108 27.1093 31.7889C27.1053 31.7671 27.096 31.7463 27.082 31.7284C27.0681 31.7105 27.0499 31.6959 27.029 31.6858C27.0082 31.6758 26.9852 31.6705 26.9619 31.6705H25.1445C25.1056 31.6706 25.0673 31.6843 25.0351 31.7095C25.0029 31.7346 24.9784 31.7701 24.9652 31.8107ZM34.1539 32.1225C33.3833 33.897 30.7493 33.254 30.7251 31.2425C30.717 30.5576 30.7138 28.3269 30.7154 24.5507C30.7154 24.5154 30.7029 24.4816 30.6806 24.4566C30.6584 24.4317 30.6282 24.4177 30.5967 24.4177H28.7793C28.7673 24.4175 28.7554 24.4209 28.7444 24.4277C28.7333 24.4344 28.7233 24.4444 28.715 24.457C28.7066 24.4696 28.7001 24.4846 28.6957 24.5011C28.6913 24.5176 28.6893 24.5353 28.6896 24.5531C28.7268 26.824 28.7397 29.0957 28.7284 31.3683C28.7066 36.1647 36.3566 36.288 36.3978 31.1241C36.4139 28.9354 36.4172 26.7442 36.4075 24.5507C36.4075 24.5154 36.3952 24.4816 36.3734 24.4566C36.3516 24.4317 36.322 24.4177 36.2912 24.4177L34.4738 24.4201C34.4548 24.4201 34.436 24.4236 34.4185 24.4303C34.401 24.4371 34.3851 24.4469 34.3718 24.4593C34.3585 24.4717 34.348 24.4863 34.341 24.5024C34.3339 24.5185 34.3305 24.5358 34.3308 24.5531C34.3566 26.5968 34.3631 28.638 34.3502 30.6768C34.347 31.3457 34.2815 31.8276 34.1539 32.1225ZM46.2141 31.1241C46.2577 28.0828 46.723 24.5555 42.4049 24.4395C41.203 24.4072 39.9954 24.404 38.7822 24.4298C38.748 24.4304 38.7154 24.4422 38.6914 24.4625C38.6674 24.4828 38.6539 24.5101 38.6538 24.5386V34.7529C38.6539 34.7819 38.6674 34.8099 38.6914 34.8307C38.7154 34.8514 38.748 34.8634 38.7822 34.8641C41.8887 34.8979 46.1487 35.6305 46.2141 31.1241ZM53.5491 33.1839L54.0652 34.7335C54.0786 34.7745 54.101 34.8103 54.1292 34.836C54.1575 34.8616 54.1903 34.8756 54.2227 34.8762L56.1613 34.8931C56.1761 34.8937 56.1902 34.8892 56.2024 34.88C56.2146 34.8708 56.2244 34.8572 56.2311 34.8403C56.2378 34.8234 56.2411 34.8037 56.2408 34.783C56.2404 34.7623 56.2364 34.7412 56.2291 34.7214L52.5459 24.6425C52.5248 24.5863 52.5008 24.5352 52.4782 24.498C52.4556 24.4609 52.4358 24.4401 52.4223 24.4395L50.9514 24.4225C50.9192 24.422 50.8845 24.4391 50.8525 24.4714C50.8206 24.5037 50.7932 24.5493 50.7746 24.6014L47.0768 34.7432C47.0714 34.7579 47.0686 34.7736 47.0688 34.789C47.069 34.8044 47.072 34.8191 47.0777 34.8319C47.0834 34.8446 47.0915 34.8551 47.1015 34.8623C47.1114 34.8696 47.1229 34.8735 47.1349 34.8737H49.0735C49.1101 34.8738 49.1481 34.8565 49.1821 34.8243C49.2161 34.7922 49.2442 34.7468 49.2625 34.6948L49.7786 33.1645C49.7884 33.1343 49.8075 33.108 49.8331 33.0893C49.8588 33.0706 49.8898 33.0606 49.9216 33.0606H53.4352C53.4563 33.0608 53.4788 33.073 53.4994 33.0952C53.5199 33.1175 53.5374 33.1486 53.5491 33.1839ZM58.6645 34.1727C58.6645 33.9162 58.5623 33.6702 58.3806 33.4889C58.1988 33.3075 57.9522 33.2056 57.6952 33.2056C57.4381 33.2056 57.1916 33.3075 57.0098 33.4889C56.828 33.6702 56.7259 33.9162 56.7259 34.1727C56.7259 34.4291 56.828 34.6751 57.0098 34.8564C57.1916 35.0378 57.4381 35.1397 57.6952 35.1397C57.9522 35.1397 58.1988 35.0378 58.3806 34.8564C58.5623 34.6751 58.6645 34.4291 58.6645 34.1727Z" fill="black"/>
<path d="M24.2358 9.19649L24.0856 19.2778L15.1609 19.2754C15.1248 19.2752 15.0899 19.2637 15.0618 19.2427C15.0337 19.2217 15.014 19.1924 15.0059 19.1593C14.9259 18.8523 15.0955 18.2527 14.7854 18.1222L14.9768 18.011L15.0737 18.0642C15.1561 18.1061 15.2199 18.1262 15.2651 18.1246C18.1261 18.036 20.7698 17.2503 23.1962 15.7675C23.2207 15.7521 23.2407 15.7307 23.2546 15.7055C23.2684 15.6802 23.2755 15.6518 23.2753 15.623C23.2751 15.5941 23.2675 15.5659 23.2532 15.5408C23.2389 15.5158 23.2185 15.4948 23.1938 15.4798L21.7641 14.6143C21.7315 14.594 21.6927 14.5853 21.6537 14.5897C21.6147 14.5941 21.5777 14.6112 21.5485 14.6385C19.7626 16.2776 17.6059 17.4936 15.127 17.3317C15.0969 17.3297 15.0681 17.3158 15.0456 17.2925C15.0231 17.2691 15.0082 17.2377 15.0034 17.2035L14.9065 16.4903L14.9671 16.4299C17.2861 16.8288 19.3749 15.1099 20.8312 13.5095C20.8577 13.4806 20.8743 13.4449 20.8783 13.4086C20.8823 13.3724 20.8734 13.3379 20.853 13.3112L20.4798 12.8229C20.6705 12.789 20.7052 12.7133 20.584 12.5956C19.891 11.9211 16.9347 9.68 15.9969 10.5673L15.1319 10.5793C15.11 10.5797 15.0882 10.5767 15.0679 10.5707C15.0475 10.5646 15.0291 10.5556 15.0135 10.5441C14.9979 10.5326 14.9856 10.5189 14.9772 10.5038C14.9688 10.4887 14.9646 10.4724 14.9647 10.456L14.9671 9.30769C14.9671 9.27692 14.9873 9.2474 15.0232 9.22564C15.0591 9.20388 15.1078 9.19165 15.1585 9.19165L24.2358 9.19649Z" fill="#8EC643"/>
<path d="M24.2358 9.19655C24.3053 9.1756 24.3634 9.17237 24.4103 9.18688C24.4354 9.19547 24.4574 9.21774 24.4731 9.2504C24.4888 9.28305 24.4974 9.32436 24.4975 9.3682L24.5023 19.099C24.5022 19.133 24.4919 19.1661 24.4728 19.1937C24.4538 19.2214 24.4269 19.2423 24.3957 19.2537C24.2649 19.3004 24.1615 19.3085 24.0856 19.2779L24.2358 9.19655Z" fill="#B0E86D"/>
<path d="M20.4799 12.8228C19.2376 11.5785 17.7433 10.8267 15.997 10.5672C16.9347 9.67992 19.891 11.921 20.584 12.5955C20.7052 12.7132 20.6705 12.7889 20.4799 12.8228Z" fill="#B0E86D"/>
<path d="M14.9671 16.43L14.9065 16.4904C13.5463 16.1197 12.6061 15.2429 12.0859 13.8601C12.059 13.7869 12.0552 13.7072 12.0751 13.6315C12.095 13.5559 12.1377 13.488 12.1974 13.437C12.9276 12.8084 13.7684 12.4127 14.7199 12.25C14.7787 12.2399 14.8326 12.2201 14.872 12.194C14.9114 12.1679 14.9339 12.1372 14.9356 12.1073L14.9623 11.4232C14.9631 11.4078 14.9585 11.3929 14.9486 11.3795C14.9388 11.3661 14.924 11.3544 14.9052 11.3454C14.8865 11.3364 14.8643 11.3303 14.8403 11.3274C14.8162 11.3246 14.7908 11.3251 14.766 11.3289C13.2345 11.5577 11.9704 12.2564 10.9737 13.4249C10.951 13.4514 10.9361 13.4848 10.9306 13.5217C10.925 13.5587 10.929 13.5978 10.9422 13.6352C11.6126 15.5435 12.9155 16.7813 14.8508 17.3486C14.8796 17.3569 14.9052 17.3752 14.9239 17.4007C14.9426 17.4263 14.9535 17.458 14.955 17.4913L14.9768 18.0111L14.7854 18.1223C12.136 17.5566 10.334 16.0085 9.37923 13.4781C9.36628 13.4446 9.36351 13.408 9.37127 13.3732C9.37904 13.3383 9.39699 13.3067 9.42284 13.2823C10.838 11.9792 12.8177 10.7873 14.7878 10.6181C14.832 10.6147 14.8749 10.6208 14.9078 10.6352C14.9406 10.6496 14.961 10.6711 14.9647 10.6955L15.0325 11.1185C15.0381 11.156 15.0596 11.1904 15.0932 11.216C15.1268 11.2417 15.1705 11.2568 15.2167 11.2588C16.9113 11.3426 18.2812 12.0469 19.3264 13.3717C19.3451 13.3958 19.3551 13.4255 19.3546 13.4562C19.3542 13.4869 19.3434 13.5168 19.324 13.541C18.3232 14.7739 16.8523 16.1592 15.1125 15.7845C15.0715 15.7762 15.0345 15.7586 15.0079 15.7348C14.9813 15.7109 14.9669 15.6823 14.9671 15.6539V13.1759C14.967 13.1518 14.9623 13.1279 14.9536 13.1058C14.9448 13.0836 14.932 13.0638 14.916 13.0474C14.9001 13.031 14.8813 13.0185 14.8609 13.0107C14.8405 13.0028 14.8189 12.9998 14.7975 13.0018C14.224 13.0615 13.7418 13.3089 13.3508 13.744C13.3283 13.7703 13.3143 13.8046 13.3104 13.843C13.3066 13.8815 13.313 13.9225 13.329 13.9616C13.6408 14.7127 14.1432 15.301 14.8362 15.7264C14.8737 15.7492 14.9048 15.7781 14.9265 15.8104C14.9482 15.8426 14.9597 15.877 14.9598 15.9102L14.9671 16.43ZM17.8458 13.2726C17.1076 12.5296 16.2094 12.1718 15.1513 12.1992C15.1251 12.1998 15.0991 12.2038 15.075 12.211C15.0508 12.2181 15.0292 12.2283 15.0113 12.2409C14.9935 12.2534 14.9799 12.268 14.9715 12.2838C14.963 12.2995 14.9599 12.316 14.9623 12.3322L15.0349 12.8713C15.0377 12.8937 15.0582 12.9196 15.0935 12.9452C15.1288 12.9709 15.177 12.9949 15.2312 13.0139C15.9113 13.2525 16.3839 13.7142 16.6488 14.3992C16.6546 14.4146 16.6644 14.4279 16.6776 14.4381C16.6908 14.4482 16.7068 14.4549 16.7244 14.4575C16.742 14.4601 16.7607 14.4586 16.7787 14.4531C16.7968 14.4475 16.8137 14.4382 16.8281 14.4258L17.8604 13.5264C17.8769 13.5124 17.8897 13.4945 17.8979 13.4738C17.9062 13.4532 17.9097 13.4302 17.9084 13.4064C17.907 13.3826 17.9007 13.3584 17.89 13.3354C17.8792 13.3124 17.8642 13.291 17.8458 13.2726Z" fill="#9ECE5F"/>
<path d="M37.3525 15.9971C37.4333 16.2904 37.5165 16.2904 37.6021 15.9971L38.9712 11.307C38.9865 11.2537 39.0113 11.2064 39.0416 11.1727C39.0719 11.1389 39.106 11.1207 39.1384 11.1208H40.8346C40.8486 11.1205 40.8622 11.1242 40.8743 11.1315C40.8864 11.1388 40.8967 11.1495 40.9043 11.1628C40.9119 11.176 40.9166 11.1914 40.9179 11.2076C40.9193 11.2239 40.9173 11.2405 40.9122 11.2562L38.867 17.5685C38.8537 17.6091 38.8317 17.6447 38.8043 17.6699C38.7768 17.6951 38.7453 17.7087 38.7143 17.7087H36.17C36.1452 17.7089 36.1179 17.6929 36.0925 17.6631C36.067 17.6333 36.0448 17.5916 36.0294 17.5443L34.0085 11.2949C34.002 11.2748 34.0013 11.2535 34.0065 11.2327C34.0117 11.2119 34.0226 11.1922 34.0385 11.1752C34.0543 11.1583 34.0746 11.1445 34.0976 11.135C34.1206 11.1256 34.1457 11.1207 34.1709 11.1208L35.8501 11.1136C35.8913 11.1129 35.9303 11.1203 35.9607 11.1343C35.9911 11.1484 36.0111 11.1684 36.0173 11.1909L37.3525 15.9971Z" fill="white"/>
<path d="M44.9104 11.1087C47.1907 11.128 50.8618 10.439 51.0896 13.8865C51.3876 18.3977 48.2326 17.8393 44.8838 17.6797C44.8509 17.6778 44.82 17.6628 44.7975 17.6376C44.775 17.6124 44.7625 17.579 44.7626 17.5443L44.7699 11.2417C44.7699 11.224 44.7735 11.2065 44.7806 11.1902C44.7877 11.1739 44.7981 11.1592 44.8112 11.1468C44.8243 11.1344 44.8398 11.1247 44.8568 11.1181C44.8739 11.1116 44.8921 11.1084 44.9104 11.1087ZM49.1486 15.2017C49.7011 13.2749 48.5186 12.3707 46.7181 12.5762C46.6828 12.5804 46.6503 12.5945 46.6266 12.6158C46.603 12.6372 46.5898 12.6644 46.5897 12.6922V16.1373C46.5895 16.1643 46.6019 16.1905 46.6244 16.2107C46.6468 16.2309 46.6778 16.2436 46.7109 16.2461C47.2617 16.2993 47.8005 16.2582 48.3271 16.1228C48.7278 16.0212 49.0016 15.7142 49.1486 15.2017Z" fill="white"/>
<path d="M28.9392 12.6922L28.9513 17.5878C28.9513 17.6199 28.9396 17.6506 28.9187 17.6733C28.8978 17.6959 28.8694 17.7087 28.8399 17.7087H27.1436C27.1115 17.7087 27.0807 17.6959 27.0579 17.6733C27.0352 17.6506 27.0225 17.6199 27.0225 17.5878V11.2417C27.0226 11.2126 27.0361 11.1846 27.0601 11.1639C27.0841 11.1431 27.1167 11.1311 27.1509 11.1304C28.3641 11.1159 29.5725 11.1127 30.776 11.1208C34.5562 11.1425 33.7008 15.1098 33.6814 17.5757C33.6807 17.6111 33.6682 17.6449 33.6465 17.6697C33.6247 17.6946 33.5955 17.7086 33.5651 17.7087H31.9924C31.9732 17.7087 31.9542 17.7047 31.9366 17.6969C31.9189 17.6891 31.9029 17.6776 31.8896 17.6632C31.8762 17.6487 31.8658 17.6316 31.8589 17.6129C31.852 17.5941 31.8488 17.5741 31.8495 17.554C31.8785 16.7819 31.8834 16.014 31.864 15.25C31.8034 12.7865 31.5902 12.5399 29.0386 12.5834C29.012 12.584 28.9867 12.5958 28.9681 12.6161C28.9495 12.6365 28.9392 12.6638 28.9392 12.6922Z" fill="white"/>
<path d="M43.5583 11.1208H41.8088C41.7726 11.1208 41.7433 11.1501 41.7433 11.1861V17.6459C41.7433 17.682 41.7726 17.7112 41.8088 17.7112H43.5583C43.5944 17.7112 43.6237 17.682 43.6237 17.6459V11.1861C43.6237 11.1501 43.5944 11.1208 43.5583 11.1208Z" fill="white"/>
<path d="M53.8578 11.1223L52.1131 11.1193C52.0756 11.1192 52.0452 11.1494 52.0451 11.1868L52.0338 17.6369C52.0338 17.6743 52.0641 17.7047 52.1015 17.7047L53.8462 17.7078C53.8837 17.7078 53.9141 17.6776 53.9142 17.6402L53.9255 11.1901C53.9256 11.1527 53.8952 11.1224 53.8578 11.1223Z" fill="white"/>
<path d="M59.8712 16.5387L57.1306 16.5556C57.0636 16.5554 56.9962 16.5839 56.9385 16.6367C56.8807 16.6895 56.8359 16.7637 56.8107 16.8481L56.5854 17.5879C56.5748 17.6227 56.5514 17.6533 56.5186 17.6751C56.4859 17.6968 56.4456 17.7086 56.4036 17.7088H54.768C54.7533 17.7087 54.7391 17.7047 54.7265 17.697C54.7139 17.6894 54.7033 17.6782 54.6957 17.6647C54.688 17.6511 54.6835 17.6355 54.6826 17.6191C54.6817 17.6028 54.6844 17.5863 54.6904 17.571L57.1669 11.2828C57.1855 11.2353 57.2151 11.1943 57.2519 11.1654C57.2887 11.1365 57.3309 11.121 57.3729 11.1208H59.6749C59.7055 11.1209 59.7371 11.134 59.7657 11.1587C59.7942 11.1833 59.8184 11.2181 59.8349 11.2587L62.3404 17.5782C62.3463 17.593 62.3493 17.6089 62.3492 17.6247C62.3492 17.6404 62.346 17.6554 62.3401 17.6685C62.3341 17.6815 62.3256 17.6922 62.3151 17.6997C62.3046 17.7071 62.2925 17.7111 62.2799 17.7112L60.523 17.7088C60.4767 17.7087 60.4327 17.6984 60.3974 17.6793C60.3622 17.6602 60.3374 17.6332 60.3268 17.6024L60.0166 16.7006C60.0004 16.6538 59.9774 16.6126 59.9512 16.5833C59.9249 16.554 59.8968 16.5383 59.8712 16.5387ZM57.3705 15.2283C57.3626 15.2488 57.3597 15.271 57.3622 15.2928C57.3646 15.3146 57.3722 15.3354 57.3844 15.3535C57.3965 15.3716 57.4129 15.3864 57.432 15.3966C57.4511 15.4068 57.4724 15.4121 57.4941 15.4121H59.4302C59.4464 15.4119 59.4617 15.4062 59.4747 15.3955C59.4878 15.3849 59.4983 15.3695 59.5054 15.3507C59.5125 15.3318 59.5159 15.31 59.5155 15.2871C59.5151 15.2642 59.5107 15.2407 59.5029 15.2187L58.5312 12.569C58.4827 12.4352 58.4351 12.4312 58.3882 12.5569L57.3705 15.2283Z" fill="white"/>
<path d="M14.9065 16.4902L15.0034 17.2034C15.0082 17.2376 15.0231 17.2691 15.0456 17.2924C15.0681 17.3158 15.0969 17.3296 15.127 17.3316C17.6059 17.4935 19.7626 16.2775 21.5485 14.6384C21.5777 14.6111 21.6147 14.594 21.6537 14.5896C21.6927 14.5852 21.7315 14.5939 21.7641 14.6142L23.1938 15.4797C23.2185 15.4947 23.2389 15.5157 23.2532 15.5407C23.2675 15.5658 23.2751 15.5941 23.2753 15.6229C23.2756 15.6517 23.2684 15.6801 23.2546 15.7054C23.2407 15.7307 23.2207 15.752 23.1962 15.7674C20.7698 17.2502 18.1261 18.0359 15.2651 18.1245C15.2199 18.1261 15.1561 18.106 15.0737 18.0641L14.9768 18.0109L14.955 17.4911C14.9535 17.4579 14.9426 17.4262 14.9239 17.4006C14.9052 17.375 14.8796 17.3568 14.8508 17.3485C12.9155 16.7812 11.6126 15.5434 10.9422 13.6351C10.929 13.5977 10.925 13.5585 10.9306 13.5216C10.9361 13.4846 10.951 13.4512 10.9737 13.4248C11.9704 12.2563 13.2345 11.5576 14.766 11.3287C14.7908 11.3249 14.8162 11.3244 14.8403 11.3273C14.8643 11.3301 14.8865 11.3363 14.9052 11.3453C14.924 11.3543 14.9388 11.3659 14.9486 11.3793C14.9585 11.3928 14.9631 11.4077 14.9623 11.423L14.9356 12.1072C14.9339 12.1371 14.9114 12.1677 14.872 12.1938C14.8326 12.2199 14.7787 12.2397 14.7199 12.2498C13.7684 12.4126 12.9276 12.8083 12.1974 13.4368C12.1377 13.4879 12.095 13.5557 12.0751 13.6314C12.0552 13.707 12.0589 13.7867 12.0859 13.8599C12.6061 15.2428 13.5463 16.1196 14.9065 16.4902Z" fill="black"/>
<path d="M17.8458 13.2726C17.8642 13.291 17.8792 13.3124 17.89 13.3354C17.9007 13.3584 17.907 13.3826 17.9083 13.4064C17.9097 13.4303 17.9062 13.4532 17.8979 13.4739C17.8896 13.4945 17.8769 13.5124 17.8604 13.5265L16.8281 14.4258C16.8137 14.4382 16.7967 14.4476 16.7787 14.4531C16.7607 14.4586 16.742 14.4601 16.7244 14.4575C16.7068 14.4549 16.6908 14.4482 16.6776 14.4381C16.6644 14.4279 16.6545 14.4146 16.6488 14.3992C16.3839 13.7142 15.9113 13.2525 15.2312 13.0139C15.177 12.9949 15.1288 12.9709 15.0935 12.9453C15.0582 12.9196 15.0377 12.8937 15.0349 12.8713L14.9622 12.3322C14.9599 12.316 14.963 12.2995 14.9714 12.2838C14.9799 12.2681 14.9935 12.2534 15.0113 12.2409C15.0292 12.2284 15.0508 12.2182 15.0749 12.211C15.0991 12.2038 15.1251 12.1998 15.1513 12.1992C16.2094 12.1718 17.1076 12.5296 17.8458 13.2726Z" fill="black"/>
<path d="M57.3705 15.2284L58.3882 12.5569C58.4351 12.4312 58.4827 12.4352 58.5312 12.569L59.5029 15.2187C59.5107 15.2408 59.5151 15.2642 59.5155 15.2871C59.5159 15.3101 59.5125 15.3319 59.5054 15.3507C59.4983 15.3695 59.4878 15.3849 59.4747 15.3956C59.4617 15.4063 59.4464 15.4119 59.4302 15.4121H57.4941C57.4724 15.4121 57.4511 15.4068 57.432 15.3966C57.4129 15.3864 57.3965 15.3716 57.3844 15.3536C57.3722 15.3355 57.3646 15.3146 57.3622 15.2928C57.3597 15.271 57.3626 15.2489 57.3705 15.2284Z" fill="black"/>
<path d="M46.7181 12.5762C48.5186 12.3707 49.7011 13.2749 49.1486 15.2017C49.0016 15.7142 48.7278 16.0213 48.3271 16.1228C47.8005 16.2582 47.2617 16.2993 46.7109 16.2461C46.6778 16.2436 46.6468 16.231 46.6244 16.2108C46.6019 16.1906 46.5895 16.1643 46.5897 16.1373V12.6923C46.5898 12.6644 46.603 12.6373 46.6266 12.6159C46.6503 12.5945 46.6828 12.5804 46.7181 12.5762Z" fill="black"/>
<path d="M64.4028 17.2952C64.3955 17.3969 64.3665 17.496 64.3173 17.5869C64.2682 17.6777 64.1999 17.7586 64.1164 17.8249C64.0329 17.8912 63.9359 17.9415 63.8307 17.9731C63.7256 18.0047 63.6145 18.0169 63.5037 18.009C63.3929 18.001 63.2847 17.9732 63.1851 17.927C63.0856 17.8807 62.9967 17.8171 62.9235 17.7396C62.8503 17.6621 62.7943 17.5723 62.7587 17.4754C62.723 17.3785 62.7084 17.2762 62.7158 17.1746C62.7231 17.0729 62.7521 16.9738 62.8012 16.883C62.8504 16.7921 62.9187 16.7112 63.0021 16.6449C63.0856 16.5786 63.1827 16.5283 63.2879 16.4967C63.393 16.4651 63.5041 16.4529 63.6149 16.4608C63.7257 16.4688 63.8339 16.4966 63.9335 16.5428C64.033 16.5891 64.1219 16.6527 64.1951 16.7302C64.2682 16.8077 64.3243 16.8975 64.3599 16.9944C64.3955 17.0914 64.4101 17.1936 64.4028 17.2952ZM63.128 17.0342C63.0278 17.0713 62.9801 17.139 62.985 17.2373C62.9873 17.2768 63.0002 17.3149 63.0224 17.3477C63.0446 17.3804 63.0752 17.4066 63.111 17.4235C63.2645 17.4944 63.3735 17.6056 63.4381 17.7571C63.4437 17.7698 63.4534 17.7799 63.4664 17.7866C63.4795 17.7933 63.4955 17.7964 63.5133 17.7957C63.5311 17.795 63.5502 17.7905 63.5691 17.7826C63.588 17.7746 63.6062 17.7634 63.6223 17.7498L63.9737 17.4549C64.013 17.4215 64.0465 17.3877 64.0705 17.3574C64.0945 17.327 64.1079 17.3014 64.1094 17.2833C64.119 17.1737 64.0746 17.0907 63.9761 17.0342C63.737 16.6732 63.4543 16.6732 63.128 17.0342Z" fill="white"/>
<path d="M63.9761 17.0342L63.9155 17.0535C63.6942 17.0197 63.4721 17.0398 63.2491 17.114L63.128 17.0342C63.4543 16.6732 63.737 16.6732 63.9761 17.0342Z" fill="#585758"/>
<path d="M63.9155 17.0535C63.7152 17.5902 63.4931 17.6104 63.2491 17.1139C63.4721 17.0398 63.6942 17.0197 63.9155 17.0535Z" fill="white"/>
<path d="M63.128 17.0342L63.2491 17.114C63.4931 17.6104 63.7152 17.5902 63.9155 17.0535L63.9761 17.0342C64.0746 17.0906 64.1191 17.1736 64.1094 17.2832C64.108 17.3013 64.0945 17.327 64.0705 17.3573C64.0465 17.3876 64.013 17.4214 63.9737 17.4548L63.6223 17.7498C63.6062 17.7634 63.588 17.7745 63.5691 17.7825C63.5502 17.7904 63.5311 17.7949 63.5133 17.7957C63.4955 17.7964 63.4795 17.7932 63.4665 17.7865C63.4534 17.7798 63.4437 17.7697 63.4381 17.757C63.3735 17.6055 63.2645 17.4943 63.111 17.4234C63.0752 17.4065 63.0446 17.3803 63.0224 17.3476C63.0002 17.3148 62.9873 17.2767 62.985 17.2373C62.9802 17.1389 63.0278 17.0712 63.128 17.0342Z" fill="black"/>
<path d="M21.5097 31.3682C21.6818 33.5247 24.3109 33.8076 24.9652 31.8107C24.9784 31.77 25.0029 31.7346 25.0351 31.7094C25.0673 31.6843 25.1056 31.6706 25.1445 31.6704H26.9619C26.9852 31.6705 27.0082 31.6757 27.0291 31.6858C27.0499 31.6959 27.0681 31.7105 27.082 31.7284C27.096 31.7463 27.1053 31.767 27.1093 31.7889C27.1132 31.8108 27.1117 31.8331 27.1048 31.8542C26.4425 33.9913 25.1211 35.026 23.1405 34.9583C21.0251 34.8882 19.6705 33.619 19.4718 31.5423C19.3167 29.9443 19.2004 27.4469 19.9395 26.1197C21.6212 23.1001 26.47 24.0575 27.0661 27.546C27.0689 27.5628 27.0684 27.5799 27.0645 27.5963C27.0606 27.6126 27.0534 27.6278 27.0435 27.6407C27.0336 27.6536 27.0211 27.664 27.007 27.671C26.9929 27.678 26.9775 27.6816 26.9619 27.6814H25.1445C25.1056 27.6813 25.0674 27.667 25.0358 27.6407C25.0043 27.6145 24.9812 27.5778 24.97 27.5364C24.6356 26.2575 23.0387 25.728 22.0961 26.5887C21.1777 27.4276 21.4152 30.1474 21.5097 31.3682Z" fill="white"/>
<path d="M30.7251 31.2423C30.7493 33.2537 33.3833 33.8968 34.1539 32.1223C34.2815 31.8274 34.347 31.3455 34.3502 30.6766C34.3631 28.6378 34.3566 26.5965 34.3308 24.5529C34.3305 24.5355 34.3339 24.5183 34.341 24.5022C34.348 24.4861 34.3585 24.4714 34.3718 24.4591C34.3851 24.4467 34.401 24.4369 34.4185 24.4301C34.436 24.4234 34.4548 24.4199 34.4738 24.4199L36.2912 24.4175C36.322 24.4175 36.3516 24.4315 36.3734 24.4564C36.3952 24.4814 36.4075 24.5152 36.4075 24.5505C36.4172 26.744 36.4139 28.9351 36.3978 31.1239C36.3566 36.2878 28.7066 36.1645 28.7284 31.368C28.7397 29.0955 28.7268 26.8238 28.6896 24.5529C28.6893 24.5351 28.6913 24.5174 28.6957 24.5009C28.7001 24.4844 28.7066 24.4694 28.715 24.4568C28.7233 24.4442 28.7333 24.4342 28.7444 24.4274C28.7554 24.4207 28.7673 24.4173 28.7793 24.4175H30.5967C30.6282 24.4175 30.6584 24.4315 30.6806 24.4564C30.7029 24.4814 30.7154 24.5152 30.7154 24.5505C30.7138 28.3267 30.717 30.5573 30.7251 31.2423Z" fill="white"/>
<path d="M42.4049 24.4395C46.723 24.5555 46.2577 28.0828 46.2141 31.1241C46.1487 35.6304 41.8887 34.8979 38.7822 34.8641C38.748 34.8634 38.7154 34.8514 38.6914 34.8307C38.6674 34.8099 38.6539 34.7819 38.6538 34.7529V24.5386C38.6539 24.5101 38.6674 24.4828 38.6914 24.4625C38.7154 24.4422 38.748 24.4304 38.7822 24.4298C39.9954 24.404 41.203 24.4072 42.4049 24.4395ZM43.4129 26.5935C42.5809 26.2792 41.7223 26.1898 40.8371 26.3252C40.8027 26.3304 40.7713 26.3481 40.7486 26.3752C40.726 26.4022 40.7135 26.4368 40.7135 26.4726V32.9397C40.7132 32.9679 40.7261 32.9954 40.7495 33.0165C40.7729 33.0376 40.8051 33.0508 40.8395 33.0533C42.48 33.179 43.9436 33.0896 44.1084 31.2498C44.2214 29.9943 44.2045 28.7581 44.0575 27.5412C43.9977 27.0513 43.7828 26.7354 43.4129 26.5935Z" fill="white"/>
<path d="M53.4352 33.0604H49.9216C49.8898 33.0604 49.8588 33.0705 49.8331 33.0892C49.8075 33.1078 49.7884 33.1342 49.7786 33.1644L49.2625 34.6947C49.2442 34.7467 49.2161 34.792 49.1821 34.8242C49.1481 34.8563 49.1101 34.8736 49.0735 34.8736H47.1349C47.1229 34.8734 47.1114 34.8695 47.1015 34.8622C47.0915 34.8549 47.0834 34.8444 47.0777 34.8317C47.072 34.8189 47.069 34.8042 47.0688 34.7888C47.0686 34.7734 47.0714 34.7577 47.0768 34.743L50.7746 24.6013C50.7933 24.5492 50.8206 24.5035 50.8526 24.4713C50.8845 24.439 50.9192 24.4218 50.9515 24.4224L52.4223 24.4393C52.4358 24.44 52.4556 24.4607 52.4782 24.4979C52.5008 24.535 52.5248 24.5862 52.5459 24.6424L56.2292 34.7213C56.2364 34.741 56.2404 34.7621 56.2408 34.7829C56.2411 34.8036 56.2378 34.8232 56.2311 34.8401C56.2244 34.857 56.2146 34.8707 56.2024 34.8799C56.1903 34.8891 56.1761 34.8936 56.1613 34.8929L54.2228 34.876C54.1903 34.8755 54.1575 34.8614 54.1293 34.8358C54.101 34.8102 54.0786 34.7743 54.0653 34.7334L53.5491 33.1837C53.5374 33.1484 53.5199 33.1173 53.4994 33.0951C53.4788 33.0728 53.4563 33.0606 53.4352 33.0604ZM51.6372 27.7466L50.4644 31.1239C50.457 31.1447 50.4545 31.1669 50.4572 31.1888C50.4598 31.2106 50.4675 31.2314 50.4797 31.2494C50.4918 31.2674 50.5079 31.2821 50.5268 31.2922C50.5456 31.3024 50.5666 31.3077 50.588 31.3077H52.8294C52.8443 31.308 52.8584 31.303 52.8704 31.2931C52.8823 31.2831 52.8919 31.2686 52.8983 31.2506C52.9047 31.2327 52.9077 31.2118 52.9071 31.1898C52.9065 31.1677 52.9023 31.1452 52.8949 31.1239L51.7632 27.7852C51.718 27.6482 51.676 27.6353 51.6372 27.7466Z" fill="white"/>
<path d="M43.4129 26.5934C43.7828 26.7352 43.9977 27.0511 44.0575 27.5411C44.2045 28.758 44.2214 29.9941 44.1084 31.2497C43.9436 33.0895 42.48 33.1789 40.8395 33.0532C40.8051 33.0507 40.7729 33.0375 40.7495 33.0164C40.7261 32.9953 40.7132 32.9678 40.7135 32.9396V26.4725C40.7135 26.4367 40.726 26.4021 40.7486 26.3751C40.7713 26.348 40.8027 26.3303 40.8371 26.3251C41.7223 26.1897 42.5809 26.2791 43.4129 26.5934Z" fill="black"/>
<path d="M51.6372 27.7466C51.676 27.6354 51.718 27.6483 51.7632 27.7853L52.8948 31.124C52.9023 31.1452 52.9065 31.1678 52.9071 31.1898C52.9077 31.2119 52.9047 31.2327 52.8983 31.2507C52.8919 31.2687 52.8823 31.2832 52.8703 31.2931C52.8584 31.303 52.8443 31.308 52.8294 31.3077H50.588C50.5666 31.3077 50.5456 31.3024 50.5268 31.2923C50.5079 31.2822 50.4918 31.2675 50.4797 31.2495C50.4675 31.2315 50.4598 31.2107 50.4572 31.1888C50.4545 31.167 50.457 31.1448 50.4644 31.124L51.6372 27.7466Z" fill="black"/>
<path d="M58.6644 34.1726C58.6644 34.4291 58.5623 34.675 58.3806 34.8564C58.1988 35.0377 57.9522 35.1396 57.6952 35.1396C57.4381 35.1396 57.1916 35.0377 57.0098 34.8564C56.828 34.675 56.7259 34.4291 56.7259 34.1726C56.7259 33.9161 56.828 33.6702 57.0098 33.4888C57.1916 33.3074 57.4381 33.2056 57.6952 33.2056C57.9522 33.2056 58.1988 33.3074 58.3806 33.4888C58.5623 33.6702 58.6644 33.9161 58.6644 34.1726ZM58.0029 33.9792C57.9464 34.3418 58.015 34.5159 58.2089 34.5014C58.2497 34.4983 58.2877 34.4793 58.3152 34.4483C58.3427 34.4173 58.3575 34.3766 58.3567 34.3346C58.3438 33.6431 58.0175 33.3708 57.3777 33.5174C57.3355 33.5272 57.2941 33.5495 57.2567 33.5826C57.2194 33.6157 57.187 33.6587 57.1621 33.7084C56.8842 34.2596 57.0377 34.6263 57.6225 34.8084C57.6749 34.8252 57.7252 34.835 57.7676 34.8367C57.8101 34.8384 57.8429 34.832 57.8624 34.8181C58.032 34.6988 58.0296 34.5965 57.8551 34.5111C57.8262 34.4966 57.7944 34.4884 57.7618 34.4872C57.7292 34.4859 57.6966 34.4916 57.6661 34.5038C57.2396 34.6827 57.1524 33.2297 57.9302 33.7882C57.958 33.8086 57.9795 33.8372 57.9923 33.8709C58.0052 33.9046 58.0088 33.9421 58.0029 33.9792Z" fill="white"/>
<path d="M57.9302 33.788C57.1524 33.2296 57.2396 34.6825 57.6661 34.5036C57.6966 34.4914 57.7292 34.4858 57.7618 34.487C57.7944 34.4883 57.8262 34.4964 57.8551 34.5109C58.0296 34.5963 58.032 34.6987 57.8624 34.8179C57.8429 34.8318 57.8101 34.8383 57.7676 34.8366C57.7252 34.8348 57.6749 34.825 57.6225 34.8082C57.0377 34.6261 56.8842 34.2595 57.1621 33.7082C57.187 33.6585 57.2194 33.6155 57.2567 33.5824C57.2941 33.5493 57.3355 33.527 57.3777 33.5173C58.0175 33.3706 58.3438 33.643 58.3567 34.3344C58.3575 34.3764 58.3427 34.4171 58.3152 34.4481C58.2877 34.4792 58.2497 34.4982 58.2089 34.5012C58.015 34.5157 57.9464 34.3417 58.0029 33.979C58.0088 33.9419 58.0052 33.9044 57.9923 33.8707C57.9795 33.837 57.958 33.8084 57.9302 33.788Z" fill="black"/>
</svg>
