<svg width="46" height="44" viewBox="0 0 46 44" fill="none" xmlns="http://www.w3.org/2000/svg">
<path d="M41.5901 32.4388C41.8856 31.9345 42.0693 31.3663 42.0693 30.856V13.1437C42.0693 12.6335 41.8859 12.0654 41.5902 11.561L23.2333 21.9999L41.5901 32.4388Z" fill="#00599C"/>
<path d="M24.8646 42.4951L40.4381 33.639C40.8867 33.3839 41.2945 32.9433 41.59 32.4389L23.2333 22L4.87662 32.439C5.17221 32.9433 5.58007 33.384 6.02857 33.639L21.6021 42.4951C22.4992 43.0053 23.9674 43.0053 24.8646 42.4951Z" fill="#004482"/>
<path d="M41.5902 11.5609C41.2945 11.0565 40.8866 10.616 40.4381 10.3608L24.8645 1.50477C23.9674 0.994505 22.4992 0.994505 21.6021 1.50477L6.02856 10.3608C5.13133 10.871 4.39734 12.1233 4.39734 13.1437V30.856C4.39734 31.3663 4.5809 31.9345 4.87661 32.4388L23.2333 21.9999L41.5902 11.5609Z" fill="#659AD2"/>
<path d="M23.2333 34.3683C16.3092 34.3683 10.676 28.8198 10.676 21.9998C10.676 15.1798 16.3092 9.63135 23.2333 9.63135C27.7013 9.63135 31.8682 11.9995 34.1078 15.8117L28.6734 18.9092C27.5524 17.001 25.4678 15.8156 23.2333 15.8156C19.7712 15.8156 16.9547 18.5898 16.9547 21.9998C16.9547 25.4098 19.7712 28.1841 23.2333 28.1841C25.468 28.1841 27.5527 26.9986 28.6737 25.0901L34.1082 28.1875C31.8686 32 27.7015 34.3683 23.2333 34.3683Z" fill="white"/>
<path d="M34.3953 19.9385H33.0002V21.3127H31.6049V22.6869H33.0002V24.0613H34.3953V22.6869H35.7907V21.3127H34.3953V19.9385ZM39.6275 19.9385H38.2325V21.3127H36.8371V22.6869H38.2325V24.0613H39.6275V22.6869H41.0229V21.3127H39.6275V19.9385Z" fill="white"/>
</svg>
