<svg width="43" height="44" viewBox="0 0 43 44" fill="none" xmlns="http://www.w3.org/2000/svg">
<g clip-path="url(#clip0_1826_5472)">
<path d="M31.4826 32.0308C31.7586 29.6993 31.6759 29.3574 33.3882 29.735L33.8229 29.7738C35.1396 29.8345 36.862 29.559 37.8738 29.0822C40.052 28.0572 41.3437 26.3457 39.1958 26.7954C34.2965 27.8205 33.9597 26.1379 33.9597 26.1379C39.1331 18.3529 41.2957 8.47048 39.429 6.05147C34.3375 -0.546704 25.5243 2.57342 25.3768 2.65443L25.3299 2.66323C24.3618 2.45952 23.2785 2.33781 22.0615 2.31785C19.8444 2.2809 18.162 2.90734 16.8859 3.88903C16.8859 3.88903 1.16356 -2.6804 1.89499 12.1508C2.05055 15.3058 6.35401 36.0242 11.4867 29.7662C13.3627 27.4779 15.1756 25.5431 15.1756 25.5431C16.0759 26.1497 17.1537 26.4591 18.2841 26.348L18.3715 26.2724C18.3441 26.5565 18.3562 26.8344 18.4064 27.1634C17.0844 28.6618 17.4729 28.9248 14.8293 29.4767C12.1548 30.0358 13.7261 31.0311 14.7517 31.2912C15.9954 31.6066 18.8725 32.0535 20.8171 29.2932L20.7396 29.6082C21.2583 30.029 21.2233 32.6331 21.2968 34.4936C21.3705 36.3543 21.4933 38.0905 21.8672 39.1142C22.2412 40.1377 22.6824 42.7744 26.1567 42.0192C29.0603 41.3882 31.2803 40.48 31.4826 32.0308Z" fill="black" stroke="black" stroke-width="3.97306"/>
<path d="M39.1963 26.7951C34.2965 27.8202 33.9597 26.1376 33.9597 26.1376C39.1331 18.3521 41.2957 8.46949 39.4294 6.05078C34.3379 -0.547004 25.5243 2.57332 25.3772 2.65433L25.3299 2.66293C24.3618 2.45912 23.2785 2.33771 22.0609 2.31755C19.8438 2.2807 18.162 2.90704 16.8859 3.88853C16.8859 3.88853 1.16325 -2.6806 1.89449 12.1505C2.05005 15.3057 6.35342 36.0241 11.4863 29.7661C13.3624 27.4778 15.175 25.543 15.175 25.543C16.0754 26.1496 17.1532 26.459 18.2831 26.3479L18.3709 26.2723C18.3436 26.5564 18.3561 26.8343 18.406 27.1633C17.0837 28.6617 17.4723 28.9247 14.8289 29.4766C12.1542 30.0356 13.7255 31.031 14.7514 31.2911C15.9951 31.6065 18.8724 32.0534 20.8166 29.2931L20.739 29.6081C21.2572 30.0289 21.621 32.3457 21.56 34.4458C21.499 36.546 21.4583 37.9879 21.8665 39.1141C22.2748 40.2403 22.6816 42.7743 26.1566 42.0191C29.0602 41.3881 30.5648 39.7527 30.7742 37.0247C30.9227 35.0854 31.2589 35.3721 31.2801 33.6382L31.5497 32.8173C31.8606 30.1884 31.5991 29.3403 33.388 29.7347L33.8227 29.7735C35.1394 29.8342 36.8626 29.5587 37.874 29.0819C40.0518 28.0569 41.3435 26.3454 39.1961 26.7951H39.1963Z" fill="#336791"/>
<path d="M21.027 28.302C20.8921 33.1938 21.0609 38.1196 21.5328 39.3167C22.0051 40.5139 23.0157 42.8424 26.4909 42.0873C29.3942 41.4561 30.4506 40.2344 30.909 37.5379C31.2466 35.554 31.8975 30.0442 31.981 28.9153" stroke="white" stroke-width="1.32435" stroke-linecap="round" stroke-linejoin="round"/>
<path d="M16.8616 3.77937C16.8616 3.77937 1.12826 -2.74244 1.8597 12.0886C2.01526 15.2438 6.31891 35.9629 11.4517 29.7047C13.3274 27.4161 15.0237 25.6212 15.0237 25.6212" stroke="white" stroke-width="1.32435" stroke-linecap="round" stroke-linejoin="round"/>
<path d="M25.3599 2.58888C24.8153 2.76207 34.1118 -0.857848 39.3951 5.98899C41.2613 8.4078 39.0987 18.2904 33.9254 26.0761" stroke="white" stroke-width="1.32435" stroke-linecap="round" stroke-linejoin="round"/>
<path d="M33.9253 26.0763C33.9253 26.0763 34.2624 27.7593 39.1623 26.7335C41.3092 26.2838 40.0172 27.9955 37.8398 29.021C36.0529 29.8622 32.0466 30.0777 31.9811 28.9154C31.8127 25.9166 34.0896 26.8277 33.9253 26.0763ZM33.9253 26.0763C33.7768 25.3995 32.7585 24.7354 32.085 23.0791C31.4969 21.6335 24.02 10.5476 34.1585 12.194C34.5299 12.1161 31.5143 2.41346 22.0261 2.25569C12.5401 2.09792 12.8513 14.0871 12.8513 14.0871" stroke="white" stroke-width="1.32435" stroke-linecap="round" stroke-linejoin="bevel"/>
<path d="M18.3715 27.1018C17.049 28.6001 17.4379 28.8632 14.7944 29.4152C12.1197 29.9744 13.6911 30.9695 14.7167 31.2295C15.9604 31.5452 18.8378 31.992 20.7819 29.2311C21.374 28.3905 20.7784 27.0492 19.9652 26.7073C19.5722 26.5422 19.0468 26.3353 18.3715 27.1018Z" stroke="white" stroke-width="1.32435" stroke-linecap="round" stroke-linejoin="round"/>
<path d="M18.2849 27.0755C18.1516 26.1945 18.5703 25.1463 19.019 23.9199C19.6932 22.0798 21.2489 20.2394 20.0044 14.4024C19.0768 10.0527 12.8551 13.4972 12.8512 14.087C12.8474 14.6765 13.1326 17.0764 12.7473 19.871C12.2445 23.5177 15.0352 26.6018 18.2488 26.2863" stroke="white" stroke-width="1.32435" stroke-linecap="round" stroke-linejoin="round"/>
<path d="M16.8045 13.9986C16.7765 14.2 17.1681 14.7375 17.6788 14.8094C18.1887 14.8815 18.6251 14.4614 18.6527 14.2602C18.6804 14.0587 18.2892 13.8369 17.7783 13.7647C17.2682 13.6925 16.8316 13.7976 16.8046 13.9986H16.8045Z" fill="white" stroke="white" stroke-width="0.441448"/>
<path d="M32.3336 13.5879C32.3613 13.7893 31.9701 14.3269 31.4593 14.3987C30.9491 14.4708 30.5127 14.0507 30.4847 13.8495C30.4577 13.6481 30.849 13.4262 31.3593 13.3541C31.8697 13.2819 32.3059 13.387 32.3336 13.588V13.5879Z" fill="white" stroke="white" stroke-width="0.220724"/>
<path d="M34.1585 12.1938C34.2426 13.7739 33.8229 14.8501 33.77 16.5322C33.6917 18.9771 34.9193 21.7754 33.0696 24.5772" stroke="white" stroke-width="1.32435" stroke-linecap="round" stroke-linejoin="round"/>
</g>
<defs>
<clipPath id="clip0_1826_5472">
<rect width="42.087" height="44" fill="white"/>
</clipPath>
</defs>
</svg>
