<svg width="39" height="36" viewBox="0 0 39 36" fill="none" xmlns="http://www.w3.org/2000/svg">
<path d="M38.5 18.004C38.5 15.4459 35.3061 13.0217 30.4092 11.5184C31.5392 6.51252 31.037 2.52987 28.824 1.25479C28.3139 0.955698 27.7175 0.814023 27.0661 0.814023V2.56922C27.4271 2.56922 27.7175 2.64006 27.9608 2.77387C29.028 3.38779 29.491 5.72543 29.13 8.7321C29.0437 9.47196 28.9025 10.2512 28.7298 11.0461C27.1917 10.6683 25.5123 10.3771 23.7466 10.1882C22.6872 8.7321 21.5886 7.4098 20.4821 6.25278C23.0404 3.86791 25.4417 2.56135 27.074 2.56135V0.806152C24.9159 0.806152 22.0908 2.34884 19.2343 5.02493C16.3778 2.36458 13.5527 0.837636 11.3946 0.837636V2.59284C13.0191 2.59284 15.4283 3.89153 17.9865 6.26065C16.8879 7.41767 15.7892 8.7321 14.7455 10.1882C12.972 10.3771 11.2926 10.6683 9.75449 11.054C9.57399 10.2669 9.44058 9.50344 9.34641 8.77145C8.97758 5.76479 9.43274 3.42715 10.4922 2.80535C10.7276 2.66367 11.0336 2.60071 11.3946 2.60071V0.845507C10.7354 0.845507 10.139 0.987182 9.62108 1.28627C7.41592 2.56135 6.92153 6.53613 8.05942 11.5263C3.17825 13.0375 0 15.4538 0 18.004C0 20.562 3.19395 22.9862 8.09081 24.4895C6.96076 29.4954 7.46301 33.4781 9.67601 34.7531C10.1861 35.0522 10.7825 35.1939 11.4417 35.1939C13.5998 35.1939 16.4249 33.6512 19.2814 30.9751C22.1379 33.6355 24.963 35.1624 27.1211 35.1624C27.7803 35.1624 28.3767 35.0207 28.8946 34.7216C31.0998 33.4466 31.5942 29.4718 30.4563 24.4817C35.3218 22.9783 38.5 20.5541 38.5 18.004ZM28.2825 12.7541C27.9922 13.7694 27.6312 14.8163 27.2231 15.8631C26.9013 15.2334 26.5639 14.6038 26.1951 13.9741C25.8341 13.3444 25.4496 12.7305 25.065 12.1323C26.1794 12.2976 27.2545 12.5022 28.2825 12.7541ZM24.6883 21.1366C24.0762 22.1991 23.4484 23.2066 22.7971 24.1432C21.6278 24.2455 20.4428 24.3006 19.25 24.3006C18.065 24.3006 16.88 24.2455 15.7186 24.1511C15.0673 23.2145 14.4316 22.2149 13.8195 21.1602C13.2231 20.1291 12.6816 19.0823 12.1872 18.0276C12.6738 16.9729 13.2231 15.9182 13.8117 14.8871C14.4238 13.8245 15.0516 12.8171 15.7029 11.8804C16.8722 11.7781 18.0572 11.723 19.25 11.723C20.435 11.723 21.62 11.7781 22.7814 11.8726C23.4327 12.8092 24.0684 13.8088 24.6805 14.8635C25.2769 15.8946 25.8184 16.9414 26.3128 17.9961C25.8184 19.0508 25.2769 20.1055 24.6883 21.1366ZM27.2231 20.1133C27.6469 21.168 28.0079 22.2227 28.3061 23.246C27.278 23.4978 26.1951 23.7103 25.0729 23.8756C25.4574 23.2696 25.8419 22.6478 26.2029 22.0102C26.5639 21.3806 26.9013 20.743 27.2231 20.1133ZM19.2657 28.5115C18.5359 27.7559 17.8061 26.9138 17.0841 25.9929C17.7904 26.0244 18.5123 26.048 19.2422 26.048C19.9798 26.048 20.7096 26.0322 21.4238 25.9929C20.7175 26.9138 19.9877 27.7559 19.2657 28.5115ZM13.4271 23.8756C12.3128 23.7103 11.2377 23.5057 10.2096 23.2538C10.5 22.2385 10.861 21.1917 11.2691 20.1448C11.5908 20.7745 11.9283 21.4042 12.2971 22.0338C12.6659 22.6635 13.0426 23.2774 13.4271 23.8756ZM19.2265 7.49638C19.9563 8.25198 20.6861 9.09416 21.4081 10.015C20.7018 9.98357 19.9798 9.95995 19.25 9.95995C18.5123 9.95995 17.7825 9.97569 17.0684 10.015C17.7747 9.09416 18.5045 8.25198 19.2265 7.49638ZM13.4193 12.1323C13.0348 12.7384 12.6502 13.3602 12.2892 13.9977C11.9283 14.6274 11.5908 15.257 11.2691 15.8867C10.8453 14.832 10.4843 13.7773 10.1861 12.7541C11.2141 12.5101 12.2971 12.2976 13.4193 12.1323ZM6.31727 21.9866C3.53924 20.7981 1.74215 19.2397 1.74215 18.004C1.74215 16.7682 3.53924 15.2019 6.31727 14.0213C6.99215 13.7301 7.72982 13.4704 8.49103 13.2264C8.93834 14.769 9.52691 16.3747 10.2567 18.0197C9.53475 19.6568 8.95404 21.2546 8.51458 22.7894C7.73767 22.5454 7 22.2778 6.31727 21.9866ZM10.5392 33.2341C9.47197 32.6201 9.00897 30.2825 9.36996 27.2758C9.45628 26.536 9.59754 25.7568 9.77018 24.9618C11.3083 25.3396 12.9877 25.6308 14.7534 25.8197C15.8128 27.2758 16.9114 28.5981 18.0179 29.7551C15.4596 32.14 13.0583 33.4466 11.426 33.4466C11.0729 33.4387 10.7747 33.3679 10.5392 33.2341ZM29.1536 27.2365C29.5224 30.2431 29.0673 32.5808 28.0078 33.2026C27.7724 33.3443 27.4664 33.4072 27.1054 33.4072C25.4809 33.4072 23.0718 32.1085 20.5135 29.7394C21.6121 28.5824 22.7108 27.268 23.7545 25.8118C25.528 25.6229 27.2074 25.3317 28.7455 24.9461C28.926 25.741 29.0673 26.5045 29.1536 27.2365ZM32.1749 21.9866C31.5 22.2778 30.7623 22.5376 30.0011 22.7816C29.5538 21.2389 28.9652 19.6332 28.2354 17.9882C28.9574 16.3511 29.5381 14.7533 29.9776 13.2185C30.7545 13.4625 31.4922 13.7301 32.1827 14.0213C34.9608 15.2098 36.7578 16.7682 36.7578 18.004C36.75 19.2397 34.9529 20.806 32.1749 21.9866Z" fill="#61DAFB"/>
<path d="M19.2422 21.6012C21.2229 21.6012 22.8285 19.9908 22.8285 18.0042C22.8285 16.0176 21.2229 14.4072 19.2422 14.4072C17.2615 14.4072 15.6559 16.0176 15.6559 18.0042C15.6559 19.9908 17.2615 21.6012 19.2422 21.6012Z" fill="#61DAFB"/>
</svg>
