<svg width="33" height="44" viewBox="0 0 33 44" fill="none" xmlns="http://www.w3.org/2000/svg">
<path d="M10.8683 33.7286C4.27105 35.5718 14.8823 39.3795 23.2828 35.7805C21.9068 35.2456 20.9199 34.6286 20.9199 34.6286C17.174 35.3367 15.4364 35.3924 12.036 35.0039C9.22964 34.6825 10.8683 33.7286 10.8683 33.7286ZM22.277 30.133C17.3119 31.0883 14.444 31.0577 10.8116 30.683C8.0028 30.3925 9.84152 29.0313 9.84152 29.0313C2.57567 31.443 13.8864 34.1796 24.0415 31.2093C22.9621 30.8291 22.277 30.133 22.277 30.133ZM26.1679 9.31035C26.1683 9.31035 11.4791 12.9778 18.4944 21.0621C20.5651 23.446 17.9513 25.5893 17.9513 25.5893C17.9513 25.5893 23.2069 22.8768 20.7937 19.4785C18.5391 16.3108 16.8107 14.7371 26.1679 9.31035ZM29.6047 37.2036C29.6047 37.2036 30.8178 38.2039 28.2682 38.977C23.4207 40.4455 8.08805 40.8883 3.82933 39.0358C2.29964 38.3696 5.16961 37.4459 6.07264 37.251C7.01417 37.0472 7.5518 37.0843 7.5518 37.0843C5.84955 35.8857 -3.45267 39.439 2.82798 40.4582C19.954 43.2344 34.0463 39.208 29.6047 37.2036ZM23.7187 26.7766C24.542 26.2149 25.6791 25.7272 25.6791 25.7272C25.6791 25.7272 22.4396 26.3064 19.2121 26.5776C15.2611 26.909 11.023 26.9743 8.89552 26.6897C3.85889 26.0163 11.6569 24.1638 11.6569 24.1638C11.6569 24.1638 8.62773 23.9589 4.90423 25.7602C0.50011 27.8897 15.798 28.8604 23.7187 26.7766ZM25.6468 31.9827C25.6097 32.0824 25.4859 32.1945 25.4859 32.1945C36.236 29.3685 32.2836 22.2329 27.1435 24.039C26.6925 24.1985 26.456 24.5694 26.456 24.5694C26.456 24.5694 26.741 24.4546 27.3765 24.3219C29.975 23.7805 33.6978 27.8003 25.6468 31.9827ZM16.5622 24.0861C14.9761 20.5011 9.5978 17.3648 16.5646 11.8627C25.2515 5.00591 20.7941 0.54541 20.7941 0.54541C22.5919 7.62941 14.4515 9.76925 11.5132 14.1809C9.5122 17.187 12.4953 20.4173 16.5622 24.0861ZM25.9376 41.8745C19.3421 43.1161 11.2065 42.9714 6.3827 42.1749C6.3827 42.1749 7.37064 42.993 12.4485 43.3199C20.1746 43.8139 32.0423 43.0449 32.3228 39.3888C32.3231 39.3888 31.7831 40.7748 25.9376 41.8745Z" fill="#EA2D2E"/>
</svg>
