<svg width="33" height="32" viewBox="0 0 33 32" fill="none" xmlns="http://www.w3.org/2000/svg">
<path fill-rule="evenodd" clip-rule="evenodd" d="M25.7643 21.6745L26 21.6665C27.9239 21.6665 29.516 23.1517 29.6587 25.0974L29.6667 25.3332C29.6667 27.2571 28.1815 28.8491 26.2358 28.9919L26 28.9998C24.0761 28.9998 22.4841 27.5146 22.3414 25.569L22.3334 25.3332C22.3334 23.4093 23.8186 21.8172 25.7643 21.6745ZM26 23.6665L25.8745 23.6711C25.0085 23.7349 24.3334 24.4586 24.3327 25.2965L24.338 25.4587C24.4018 26.3247 25.1255 26.9998 25.9633 27.0005L26.1256 26.9952C26.9916 26.9314 27.6667 26.2077 27.6674 25.3699L27.6621 25.2076C27.5983 24.3416 26.8746 23.6665 26 23.6665Z" fill="#EDEDED"/>
<path d="M16.6667 13.6665C17.173 13.6665 17.5914 14.0427 17.6576 14.5308L17.6667 14.6665V22.6665C17.6667 23.2188 17.219 23.6665 16.6667 23.6665C16.1605 23.6665 15.7421 23.2903 15.6759 22.8022L15.6667 22.6665V14.6665C15.6667 14.1142 16.1145 13.6665 16.6667 13.6665Z" fill="#EDEDED"/>
<path fill-rule="evenodd" clip-rule="evenodd" d="M16.431 21.6745L16.6668 21.6665C18.5907 21.6665 20.1827 23.1517 20.3255 25.0974L20.3335 25.3332C20.3335 27.2571 18.8483 28.8491 16.9026 28.9919L16.6668 28.9998C14.7429 28.9998 13.1509 27.5146 13.0081 25.569L13.0001 25.3332C13.0001 23.4093 14.4853 21.8172 16.431 21.6745ZM16.6668 23.6665L16.5412 23.6711C15.6752 23.7349 15.0001 24.4586 14.9994 25.2965L15.0047 25.4587C15.0686 26.3247 15.7922 26.9998 16.6301 27.0005L16.7924 26.9952C17.6583 26.9314 18.3335 26.2077 18.3341 25.3699L18.3288 25.2076C18.265 24.3416 17.5413 23.6665 16.6668 23.6665Z" fill="#EDEDED"/>
<path fill-rule="evenodd" clip-rule="evenodd" d="M7.09763 21.6745L7.33341 21.6665C9.25731 21.6665 10.8493 23.1517 10.9921 25.0974L11.0001 25.3332C11.0001 27.2571 9.51488 28.8491 7.5692 28.9919L7.33341 28.9998C5.40952 28.9998 3.81749 27.5146 3.67473 25.569L3.66675 25.3332C3.66675 23.4093 5.15195 21.8172 7.09763 21.6745ZM7.33341 23.6665L7.20785 23.6711C6.34186 23.7349 5.66675 24.4586 5.66607 25.2965L5.67135 25.4587C5.73519 26.3247 6.45887 26.9998 7.29672 27.0005L7.45898 26.9952C8.32497 26.9314 9.00008 26.2077 9.00076 25.3699L8.99548 25.2076C8.93164 24.3416 8.20796 23.6665 7.33341 23.6665Z" fill="#EDEDED"/>
<path d="M24.6667 17.6665C25.8906 17.6665 26.8949 18.6097 26.9923 19.8085L27 19.9998V22.6665C27 23.2188 26.5523 23.6665 26 23.6665C25.4938 23.6665 25.0754 23.2903 25.0092 22.8022L25 22.6665V19.9998C25 19.8424 24.8901 19.7099 24.743 19.6753L24.6667 19.6665H8.66671C8.50924 19.6665 8.37682 19.7764 8.3422 19.9235L8.33337 19.9998V22.6665C8.33337 23.2188 7.88566 23.6665 7.33337 23.6665C6.82711 23.6665 6.40872 23.2903 6.3425 22.8022L6.33337 22.6665V19.9998C6.33337 18.776 7.27653 17.7716 8.47539 17.6742L8.66671 17.6665H24.6667Z" fill="#EDEDED"/>
<path fill-rule="evenodd" clip-rule="evenodd" d="M10 3H23.3334C26.831 3 29.6667 5.83572 29.6664 9.35785L29.659 9.6486C29.4936 13.0121 26.7134 15.6667 23.3334 15.6667H10C6.50241 15.6667 3.66669 12.831 3.66699 9.30882L3.67443 9.01806C3.83977 5.65455 6.61999 3 10 3ZM23.3334 5H10C7.68766 5 5.78506 6.81659 5.67292 9.09168L5.66669 9.33333C5.66669 11.7264 7.60698 13.6667 10 13.6667H23.3334C25.6457 13.6667 27.5483 11.8501 27.6605 9.57499L27.6667 9.33333C27.6667 6.94028 25.7264 5 23.3334 5Z" fill="#EDEDED"/>
<path d="M23.3334 8.3335C23.8857 8.3335 24.3334 8.78121 24.3334 9.3335C24.3334 9.83976 23.9572 10.2582 23.4691 10.3244L23.3334 10.3335H15.3334C14.7811 10.3335 14.3334 9.88578 14.3334 9.3335C14.3334 8.82724 14.7096 8.40884 15.1977 8.34262L15.3334 8.3335H23.3334Z" fill="#EDEDED"/>
<path d="M9.24502 8.57953C9.59523 8.22932 10.1327 8.17095 10.5432 8.41505L10.6622 8.49736L10.7539 8.57953L10.8657 8.71249L10.9401 8.82952C11.1332 9.1886 11.1056 9.6343 10.8573 9.96864L10.7539 10.0884C10.3367 10.5056 9.66221 10.5056 9.24502 10.0884C8.82783 9.67122 8.82783 8.99672 9.24502 8.57953Z" fill="#EDEDED"/>
</svg>
