<svg width="60" height="44" viewBox="0 0 60 44" fill="none" xmlns="http://www.w3.org/2000/svg">
<path d="M23.8956 19.1784C19.5564 16.8504 17.4343 12.1039 18.736 7.61177C20.0376 3.11961 24.4262 0 29.4243 0C34.4396 0 38.827 3.11961 40.1126 7.61177C41.4143 12.1039 39.2934 16.8504 34.9529 19.1784L31.6254 13.8201C33.3453 12.8945 34.1967 11.0144 33.6834 9.22371C33.17 7.43302 31.418 6.19347 29.4243 6.19347C27.4305 6.19347 25.6797 7.43196 25.1652 9.22371C24.6507 11.0144 25.4872 12.8955 27.2231 13.8201L23.8956 19.1784Z" fill="#FF0101"/>
<path d="M47.6029 21.6714C51.9422 23.9994 54.0643 28.7458 52.7626 33.238C51.461 37.7302 47.0724 40.8498 42.0743 40.8498C37.0762 40.8498 32.6716 37.7302 31.386 33.238C30.0843 28.7458 32.2052 23.9994 36.5457 21.6714L39.8732 27.0296C38.1533 27.9553 37.3019 29.8354 37.8152 31.6261C38.3297 33.4167 40.0817 34.6563 42.0743 34.6563C44.0669 34.6563 45.8189 33.4178 46.3334 31.6261C46.8478 29.8354 46.0114 27.9542 44.2754 27.0296L47.6029 21.6714Z" fill="#0101FF"/>
<path d="M28.1066 30.5662C28.1066 35.2233 24.747 39.2973 19.9093 40.4911C15.0716 41.6998 9.96002 39.7304 7.45294 35.7C4.94586 31.6696 5.66888 26.5805 9.20492 23.2971C12.741 20.0136 18.2215 19.3422 22.5619 21.6702L19.2344 27.0285C17.5145 26.1028 15.3283 26.372 13.9143 27.6849C12.5003 28.9979 12.2104 31.0131 13.2073 32.625C14.2042 34.2221 16.2289 35.0126 18.1573 34.536C20.0858 34.0582 21.4206 32.4314 21.4206 30.5811H28.1066V30.5662Z" fill="#01FF01"/>
</svg>
