<svg width="36" height="36" viewBox="0 0 36 36" fill="none" xmlns="http://www.w3.org/2000/svg">
<g clip-path="url(#clip0_1898_2506)">
<path d="M17.8459 0.0102539C8.72974 0.0102539 9.29894 3.97943 9.29894 3.97943L9.30906 8.09162H18.0084V9.3262H5.85381C5.85381 9.3262 0.0203857 8.66197 0.0203857 17.897C0.0203857 27.1324 5.11194 26.8048 5.11194 26.8048H8.15056V22.5193C8.15056 22.5193 7.98675 17.4073 13.1608 17.4073H21.7891C21.7891 17.4073 26.6366 17.4859 26.6366 12.7034V4.79585C26.6366 4.79585 27.3729 0.0102539 17.8459 0.0102539ZM13.0491 2.77562C13.2546 2.77543 13.4582 2.81595 13.6482 2.89485C13.8381 2.97375 14.0107 3.08948 14.1561 3.23542C14.3015 3.38137 14.4167 3.55466 14.4953 3.74538C14.5739 3.93611 14.6142 4.14051 14.6141 4.34691C14.6142 4.55331 14.5739 4.75772 14.4953 4.94844C14.4167 5.13916 14.3015 5.31245 14.1561 5.4584C14.0107 5.60434 13.8381 5.72008 13.6482 5.79898C13.4582 5.87788 13.2546 5.91839 13.0491 5.91821C12.8435 5.91839 12.6399 5.87788 12.4499 5.79898C12.26 5.72008 12.0874 5.60434 11.942 5.4584C11.7966 5.31245 11.6814 5.13916 11.6028 4.94844C11.5242 4.75772 11.4839 4.55331 11.484 4.34691C11.4839 4.14051 11.5242 3.93611 11.6028 3.74538C11.6814 3.55466 11.7966 3.38137 11.942 3.23542C12.0874 3.08948 12.26 2.97375 12.4499 2.89485C12.6399 2.81595 12.8435 2.77543 13.0491 2.77562Z" fill="url(#paint0_linear_1898_2506)"/>
<path d="M18.1048 35.8766C27.2209 35.8766 26.6517 31.9074 26.6517 31.9074L26.6416 27.7954H17.9421V26.5608H30.0967C30.0967 26.5608 35.9301 27.225 35.9301 17.9897C35.9301 8.75447 30.8386 9.082 30.8386 9.082H27.7999V13.3674C27.7999 13.3674 27.9637 18.4794 22.7897 18.4794H14.1614C14.1614 18.4794 9.31385 18.4008 9.31385 23.1834V31.0911C9.31385 31.0911 8.57774 35.8766 18.1046 35.8766H18.1048ZM22.9016 33.1115C22.696 33.1117 22.4924 33.0712 22.3025 32.9923C22.1125 32.9134 21.9399 32.7976 21.7945 32.6517C21.6492 32.5057 21.5339 32.3325 21.4553 32.1417C21.3767 31.951 21.3364 31.7466 21.3366 31.5402C21.3364 31.3338 21.3767 31.1294 21.4553 30.9386C21.5339 30.7479 21.6491 30.5746 21.7945 30.4286C21.9399 30.2827 22.1125 30.1669 22.3024 30.088C22.4924 30.0091 22.696 29.9686 22.9016 29.9688C23.1072 29.9686 23.3107 30.0091 23.5007 30.088C23.6907 30.1669 23.8633 30.2826 24.0086 30.4286C24.154 30.5745 24.2693 30.7478 24.3478 30.9385C24.4264 31.1293 24.4668 31.3337 24.4666 31.5401C24.4668 31.7465 24.4264 31.9509 24.3478 32.1416C24.2693 32.3323 24.154 32.5056 24.0086 32.6516C23.8633 32.7975 23.6907 32.9132 23.5007 32.9921C23.3107 33.071 23.1072 33.1117 22.9016 33.1115Z" fill="url(#paint1_linear_1898_2506)"/>
</g>
<defs>
<linearGradient id="paint0_linear_1898_2506" x1="345.112" y1="322.607" x2="2131.75" y2="2084.35" gradientUnits="userSpaceOnUse">
<stop stop-color="#387EB8"/>
<stop offset="1" stop-color="#366994"/>
</linearGradient>
<linearGradient id="paint1_linear_1898_2506" x1="518.669" y1="560.516" x2="2436.96" y2="2366.68" gradientUnits="userSpaceOnUse">
<stop stop-color="#FFE052"/>
<stop offset="1" stop-color="#FFC331"/>
</linearGradient>
<clipPath id="clip0_1898_2506">
<rect width="36" height="36" fill="white"/>
</clipPath>
</defs>
</svg>
