<svg width="41" height="40" viewBox="0 0 41 40" fill="none" xmlns="http://www.w3.org/2000/svg">
<path d="M39.9781 10.6439C39.9779 9.82212 39.8952 9.00239 39.7313 8.19707C39.5673 7.37267 39.2885 6.57533 38.9031 5.82832C38.5004 5.10478 37.9998 4.44019 37.4156 3.85332C36.8131 3.26376 36.1132 2.78272 35.3469 2.43145C34.5906 2.0501 33.7817 1.78363 32.9469 1.64082C32.1188 1.48145 31.2094 1.48145 30.3813 1.40332H9.95312C9.31589 1.4137 8.68008 1.46694 8.05 1.5627C7.42473 1.6363 6.81266 1.79616 6.23125 2.0377C6.06562 2.11582 5.81875 2.19707 5.65312 2.2752C5.10305 2.57006 4.58017 2.91306 4.09063 3.3002C3.925 3.45957 3.75937 3.5377 3.59375 3.69395C2.98471 4.25885 2.48102 4.9276 2.10625 5.66895C1.69698 6.40545 1.41689 7.20662 1.27812 8.03769C1.15498 8.84868 1.07258 9.66533 1.03125 10.4846V29.3564C1.03151 30.1783 1.11421 30.998 1.27812 31.8033C1.44212 32.6277 1.72087 33.4251 2.10625 34.1721C2.509 34.8956 3.00954 35.5602 3.59375 36.1471C4.1963 36.7366 4.89617 37.2177 5.6625 37.5689C6.41877 37.9503 7.22766 38.2168 8.0625 38.3596C8.89062 38.5189 9.8 38.5189 10.6281 38.5971H30.3844C31.245 38.5964 32.1038 38.5169 32.95 38.3596C33.7848 38.2168 34.5937 37.9503 35.35 37.5689C36.1 37.1894 36.7957 36.7112 37.4188 36.1471C38.0278 35.5822 38.5315 34.9134 38.9062 34.1721C39.3155 33.4356 39.5956 32.6344 39.7344 31.8033C39.8575 30.9923 39.9399 30.1757 39.9813 29.3564V10.6439H39.9781Z" fill="#F05138"/>
<path d="M27.0625 30.1564C23.5906 32.0721 18.8188 32.2689 14.0156 30.3033C10.2707 28.7838 7.06873 26.1741 4.82501 22.8127C5.86774 23.6109 7.00693 24.2745 8.21564 24.7877C13.175 27.0064 18.1313 26.8533 21.6219 24.7877C16.6531 21.1439 12.4344 16.4064 9.29064 12.5377C8.67026 11.8839 8.11649 11.1699 7.63751 10.4064C11.4375 13.7221 17.4813 17.9064 19.6313 19.0908C16.5615 15.9455 13.7405 12.5666 11.1938 8.98457C15.4272 13.0986 20.0856 16.7514 25.0906 19.8814C25.3125 20.0002 25.4844 20.1002 25.6219 20.1939C25.7686 19.8358 25.8948 19.4696 26 19.0971C27.1594 15.0689 25.8344 10.4908 22.9406 6.7002C29.6406 10.5658 33.625 17.8283 31.9563 23.9096C31.9125 24.0752 31.8656 24.2221 31.8156 24.3939L31.875 24.4627C35.1844 28.4096 34.275 32.5877 33.8594 31.8064C32.0625 28.4377 28.7406 29.4783 27.0625 30.1564Z" fill="#FEFEFE"/>
</svg>
