<svg width="72" height="44" viewBox="0 0 72 44" fill="none" xmlns="http://www.w3.org/2000/svg">
<path fill-rule="evenodd" clip-rule="evenodd" d="M49.0009 2.46338L64.8086 11.4966L64.9817 17.7907L54.4816 12.6039L54.3663 17.0913L60.0201 19.7721L60.2509 26.4742L54.7701 24.3761L55.1739 35.0411L49.0585 31.7193L49.0009 2.46338Z" fill="#A5AAAA" fill-opacity="0.392157"/>
<path fill-rule="evenodd" clip-rule="evenodd" d="M7.52429 13.7957L27.9064 2.04639L28.3495 8.03293L21.9801 11.7815L22.3124 34.9444L16.8292 37.8537L15.8876 15.5301L8.07816 20.062L7.57968 14.0195L7.52429 13.7957Z" fill="#A5AAAA" fill-opacity="0.392157"/>
<path d="M34.1652 29.0652L38.4873 26.5398L42.7477 29.0652L38.4873 31.5504L34.1652 29.1246V29.0652Z" fill="#F6BD3A"/>
<path d="M21.1949 21.5796L38.4873 11.6582L51.3542 19.0469L47.0769 26.5395L38.4873 21.5796L25.5201 29.015L21.1949 21.5796Z" fill="#F6BD3A"/>
<path d="M34.1652 38.9867V34.0409L38.4283 31.5503L42.7477 29.0651V34.0409L38.4873 36.5128V41.4617L34.1652 43.9973V38.9867ZM34.1652 29.0651L29.8448 26.5924L25.5201 29.0147V24.0589L38.4873 16.6179V26.5393L34.1652 29.0651ZM47.018 24.0591V21.5795L51.3542 19.0468L51.3975 24.007L47.0769 26.5395L47.018 24.0591Z" fill="#EB8C23"/>
<path d="M29.8448 41.3702V26.5925L34.1062 24.171L34.1652 29.0652L38.4873 31.5055V36.5128L34.1652 34.1889V43.9974L29.8448 41.3702ZM23.3264 27.7248L21.1949 26.4358V21.5798L25.5201 24.0594V29.0152L23.3264 27.7248ZM38.4873 21.5796V16.6182L47.018 21.5796L47.0769 26.5395L38.4873 21.5796Z" fill="#E35A2B"/>
</svg>
