<svg width="72" height="44" viewBox="0 0 72 44" fill="none" xmlns="http://www.w3.org/2000/svg">
<path fill-rule="evenodd" clip-rule="evenodd" d="M49.1385 2.46338L64.9463 11.4966L65.1194 17.7907L54.6193 12.6039L54.504 17.0913L60.1578 19.7721L60.3886 26.4742L54.9078 24.3761L55.3116 35.0411L49.1962 31.7193L49.1385 2.46338Z" fill="#A5AAAA" fill-opacity="0.392157"/>
<path fill-rule="evenodd" clip-rule="evenodd" d="M7.66199 13.7957L28.0441 2.04639L28.4872 8.03293L22.1178 11.7815L22.4501 34.9444L16.9669 37.8537L16.0253 15.5301L8.21585 20.062L7.71737 14.0195L7.66199 13.7957Z" fill="#A5AAAA" fill-opacity="0.392157"/>
<path d="M34.3029 29.0652L38.625 26.5398L42.8854 29.0652L38.625 31.5504L34.3029 29.1246V29.0652Z" fill="#F6BD3A"/>
<path d="M21.3326 21.5796L38.625 11.6582L51.4919 19.0469L47.2146 26.5395L38.625 21.5796L25.6578 29.015L21.3326 21.5796Z" fill="#F6BD3A"/>
<path d="M34.3029 38.9867V34.0409L38.566 31.5503L42.8854 29.0651V34.0409L38.625 36.5128V41.4617L34.3029 43.9973V38.9867ZM34.3029 29.0651L29.9825 26.5924L25.6578 29.0147V24.0589L38.625 16.6179V26.5393L34.3029 29.0651ZM47.1556 24.0591V21.5795L51.4919 19.0468L51.5352 24.007L47.2146 26.5395L47.1556 24.0591Z" fill="#EB8C23"/>
<path d="M29.9825 41.3702V26.5925L34.2439 24.171L34.3029 29.0652L38.625 31.5055V36.5128L34.3029 34.1889V43.9974L29.9825 41.3702ZM23.4641 27.7248L21.3326 26.4358V21.5798L25.6578 24.0594V29.0152L23.4641 27.7248ZM38.625 21.5796V16.6182L47.1556 21.5796L47.2146 26.5395L38.625 21.5796Z" fill="#E35A2B"/>
</svg>
