<svg width="28" height="28" viewBox="0 0 28 28" fill="none" xmlns="http://www.w3.org/2000/svg">
<path fill-rule="evenodd" clip-rule="evenodd" d="M14 2.3335C7.55669 2.3335 2.33334 7.55684 2.33334 14.0002C2.33334 20.4427 7.55542 25.6656 13.9977 25.6668H14.0024C20.4446 25.6656 25.6667 20.4427 25.6667 14.0002C25.6667 7.55684 20.4433 2.3335 14 2.3335ZM4.35075 11.9061C4.20498 12.5811 4.12822 13.2816 4.12822 14.0002C4.12822 14.7187 4.20498 15.4193 4.35075 16.0942H8.45397C8.36526 15.416 8.31625 14.7161 8.31625 14.0002C8.31625 13.2842 8.36526 12.5844 8.45397 11.9061H4.35075ZM4.92373 10.1113H8.78805C9.16927 8.53402 9.74354 7.12195 10.3676 5.96044C10.6528 5.4296 10.9517 4.94483 11.2522 4.51584C8.40031 5.34064 6.07969 7.41691 4.92373 10.1113ZM10.266 11.9061C10.1667 12.5826 10.1111 13.2831 10.1111 14.0002C10.1111 14.7172 10.1667 15.4178 10.266 16.0942H17.734C17.8333 15.4178 17.8889 14.7172 17.8889 14.0002C17.8889 13.2831 17.8333 12.5826 17.734 11.9061H10.266ZM17.3592 10.1113H10.6408C10.9778 8.86836 11.4447 7.74806 11.9487 6.80989C12.4441 5.88785 12.9629 5.16516 13.4057 4.6871C13.6283 4.44678 13.8147 4.28675 13.9527 4.19372C13.9703 4.18183 13.9861 4.17174 14 4.16322C14.014 4.17174 14.0297 4.18183 14.0474 4.19372C14.1853 4.28675 14.3717 4.44678 14.5943 4.6871C15.0372 5.16516 15.556 5.88785 16.0513 6.80989C16.5553 7.74806 17.0222 8.86836 17.3592 10.1113ZM19.5461 11.9061C19.6348 12.5844 19.6838 13.2842 19.6838 14.0002C19.6838 14.7161 19.6348 15.416 19.5461 16.0942H23.6493C23.795 15.4193 23.8718 14.7187 23.8718 14.0002C23.8718 13.2816 23.795 12.5811 23.6493 11.9061H19.5461ZM23.0763 10.1113H19.212C18.8308 8.53402 18.2565 7.12195 17.6325 5.96044C17.3473 5.4296 17.0484 4.94483 16.7478 4.51584C19.5997 5.34064 21.9203 7.41691 23.0763 10.1113ZM11.2522 23.4845C8.40031 22.6597 6.07969 20.5834 4.92373 17.8891H8.78805C9.16927 19.4663 9.74354 20.8784 10.3676 22.0399C10.6528 22.5707 10.9517 23.0555 11.2522 23.4845ZM11.9487 21.1904C11.4447 20.2523 10.9778 19.132 10.6408 17.8891H17.3592C17.0222 19.132 16.5553 20.2523 16.0513 21.1904C15.556 22.1125 15.0372 22.8352 14.5943 23.3132C14.3717 23.5535 14.1853 23.7136 14.0474 23.8066C14.0297 23.8185 14.014 23.8286 14 23.8371C13.9861 23.8286 13.9703 23.8185 13.9527 23.8066C13.8147 23.7136 13.6283 23.5535 13.4057 23.3132C12.9629 22.8352 12.4441 22.1125 11.9487 21.1904ZM17.6325 22.0399C18.2565 20.8784 18.8308 19.4663 19.212 17.8891H23.0763C21.9203 20.5834 19.5997 22.6597 16.7478 23.4845C17.0484 23.0555 17.3473 22.5707 17.6325 22.0399Z" fill="#EDEDED"/>
</svg>
