<svg width="28" height="28" viewBox="0 0 28 28" fill="none" xmlns="http://www.w3.org/2000/svg">
<path fill-rule="evenodd" clip-rule="evenodd" d="M14 2.3335C10.8313 2.3335 10.4346 2.34672 9.1902 2.4035C7.94809 2.46027 7.09953 2.65783 6.35753 2.94638C5.57976 3.23883 4.87431 3.69772 4.29098 4.29194C3.69771 4.8746 3.23854 5.57955 2.94542 6.35772C2.65842 7.09972 2.46009 7.94905 2.40331 9.19116C2.34731 10.4348 2.33331 10.8307 2.33331 14.0002C2.33331 17.1696 2.34654 17.5655 2.40331 18.8099C2.46009 20.0521 2.65765 20.9006 2.9462 21.6426C3.23865 22.4204 3.69754 23.1258 4.29176 23.7092C4.87443 24.3024 5.57938 24.7616 6.35753 25.0547C7.09953 25.3425 7.94809 25.5401 9.1902 25.5968C10.4346 25.6536 10.8313 25.6668 14 25.6668C17.1686 25.6668 17.5653 25.6536 18.8098 25.5968C20.0519 25.5401 20.9004 25.3425 21.6424 25.0539C22.4202 24.7615 23.1256 24.3026 23.709 23.7084C24.3023 23.1257 24.7614 22.4208 25.0545 21.6426C25.3423 20.9006 25.5399 20.0521 25.5966 18.8099C25.6534 17.5655 25.6666 17.1688 25.6666 14.0002C25.6666 10.8315 25.6534 10.4348 25.5966 9.19039C25.5399 7.94827 25.3423 7.09972 25.0538 6.35772C24.7609 5.57921 24.3017 4.87397 23.7082 4.29116C23.1255 3.69789 22.4206 3.23872 21.6424 2.94561C20.9004 2.65861 20.0511 2.46027 18.809 2.4035C17.5653 2.3475 17.1694 2.3335 14 2.3335ZM14 4.43583C17.115 4.43583 17.4844 4.4475 18.7149 4.5035C19.852 4.55561 20.4695 4.74461 20.881 4.90561C21.4254 5.11638 21.8143 5.36994 22.2226 5.7775C22.631 6.18583 22.8838 6.57472 23.0945 7.11916C23.2548 7.53061 23.4445 8.14816 23.4966 9.28527C23.5526 10.5157 23.5643 10.8852 23.5643 14.0002C23.5643 17.1152 23.5526 17.4846 23.4966 18.7151C23.4445 19.8522 23.2555 20.4697 23.0945 20.8812C22.9078 21.3879 22.6099 21.8464 22.2226 22.2228C21.8463 22.6101 21.3878 22.9081 20.881 23.0947C20.4695 23.2549 19.852 23.4447 18.7149 23.4968C17.4844 23.5528 17.1158 23.5645 14 23.5645C10.8842 23.5645 10.5155 23.5528 9.28509 23.4968C8.14798 23.4447 7.53042 23.2557 7.11898 23.0947C6.61222 22.908 6.15376 22.6101 5.77731 22.2228C5.39012 21.8463 5.09219 21.3879 4.90542 20.8812C4.7452 20.4697 4.55542 19.8522 4.50331 18.7151C4.44731 17.4846 4.43565 17.1152 4.43565 14.0002C4.43565 10.8852 4.44731 10.5157 4.50331 9.28527C4.55542 8.14816 4.74442 7.53061 4.90542 7.11916C5.1162 6.57472 5.36976 6.18583 5.77731 5.7775C6.15371 5.3902 6.61219 5.09225 7.11898 4.90561C7.53042 4.74538 8.14798 4.55561 9.28509 4.5035C10.5155 4.4475 10.885 4.43583 14 4.43583Z" fill="#EDEDED"/>
<path fill-rule="evenodd" clip-rule="evenodd" d="M14 17.8929C13.4888 17.8929 12.9826 17.7923 12.5103 17.5966C12.038 17.401 11.6089 17.1143 11.2474 16.7528C10.8859 16.3913 10.5992 15.9622 10.4035 15.4899C10.2079 15.0176 10.1072 14.5114 10.1072 14.0002C10.1072 13.489 10.2079 12.9828 10.4035 12.5105C10.5992 12.0382 10.8859 11.609 11.2474 11.2476C11.6089 10.8861 12.038 10.5993 12.5103 10.4037C12.9826 10.2081 13.4888 10.1074 14 10.1074C15.0324 10.1074 16.0226 10.5175 16.7526 11.2476C17.4826 11.9776 17.8928 12.9677 17.8928 14.0002C17.8928 15.0326 17.4826 16.0227 16.7526 16.7528C16.0226 17.4828 15.0324 17.8929 14 17.8929ZM14 8.0035C12.4096 8.0035 10.8843 8.63529 9.75971 9.75988C8.63512 10.8845 8.00333 12.4097 8.00333 14.0002C8.00333 15.5906 8.63512 17.1159 9.75971 18.2404C10.8843 19.365 12.4096 19.9968 14 19.9968C15.5904 19.9968 17.1157 19.365 18.2403 18.2404C19.3649 17.1159 19.9967 15.5906 19.9967 14.0002C19.9967 12.4097 19.3649 10.8845 18.2403 9.75988C17.1157 8.63529 15.5904 8.0035 14 8.0035ZM21.7412 7.89461C21.7412 8.27055 21.5919 8.6311 21.326 8.89693C21.0602 9.16276 20.6997 9.31211 20.3237 9.31211C19.9478 9.31211 19.5872 9.16276 19.3214 8.89693C19.0556 8.6311 18.9062 8.27055 18.9062 7.89461C18.9062 7.51866 19.0556 7.15812 19.3214 6.89228C19.5872 6.62645 19.9478 6.47711 20.3237 6.47711C20.6997 6.47711 21.0602 6.62645 21.326 6.89228C21.5919 7.15812 21.7412 7.51866 21.7412 7.89461Z" fill="#EDEDED"/>
</svg>
