<svg width="32" height="32" viewBox="0 0 32 32" fill="none" xmlns="http://www.w3.org/2000/svg">
<path d="M28.7935 28.8004V28.7993H28.7999V19.4105C28.7999 14.8174 27.8111 11.2793 22.4415 11.2793C19.8602 11.2793 18.1279 12.6958 17.4207 14.0388H17.3461V11.7081H12.2549V28.7993H17.5562V20.3364C17.5562 18.1081 17.9786 15.9534 20.7381 15.9534C23.457 15.9534 23.4975 18.4964 23.4975 20.4793V28.8004H28.7935Z" fill="#EDEDED"/>
<path d="M3.62305 11.709H8.93078V28.8002H3.62305V11.709Z" fill="#EDEDED"/>
<path d="M6.27433 3.2002C4.57726 3.2002 3.2002 4.57726 3.2002 6.27433C3.2002 7.9714 4.57726 9.37726 6.27433 9.37726C7.9714 9.37726 9.34846 7.9714 9.34846 6.27433C9.3474 4.57726 7.97033 3.2002 6.27433 3.2002V3.2002Z" fill="#EDEDED"/>
</svg>
